if(_typeface_js&&_typeface_js.loadFace)_typeface_js.loadFace({"glyphs":{"S":{"x_min":-59.6875,"x_max":720.953125,"ha":641,"o":"m 179 377 q 207 361 198 377 q 217 325 217 345 q 215 307 217 315 q 206 294 212 300 q 190 281 200 287 q 164 269 180 276 q 104 230 126 252 q 82 185 82 207 q 92 158 82 170 q 122 135 101 145 q 174 119 142 125 q 252 113 206 113 q 341 125 299 113 q 414 156 383 136 q 464 204 446 177 q 483 265 483 232 q 463 316 483 289 q 398 370 442 342 q 280 453 320 421 q 230 492 240 484 q 154 578 179 537 q 129 664 129 619 q 149 745 129 706 q 203 819 169 784 q 281 883 237 853 q 374 933 326 912 q 472 966 423 954 q 565 978 521 978 q 627 971 598 978 q 676 947 655 963 q 709 906 697 931 q 720 846 720 881 q 691 749 720 795 q 602 663 662 703 q 554 644 576 644 q 517 661 531 644 q 503 700 503 678 q 515 738 503 719 q 551 771 526 757 q 586 798 571 781 q 601 832 601 815 q 591 852 601 847 q 565 857 580 857 q 503 850 537 857 q 436 830 470 843 q 371 801 402 818 q 315 765 339 784 q 277 723 291 745 q 262 679 262 701 q 268 651 262 664 q 286 626 274 638 q 315 599 298 613 q 354 569 332 585 l 513 451 q 568 407 543 429 q 608 365 592 386 q 633 322 624 343 q 642 276 642 300 q 614 169 642 221 q 534 77 585 118 q 409 11 482 36 q 247 -13 336 -13 q 106 0 164 -13 q 11 35 48 12 q -42 87 -25 58 q -59 149 -59 117 q -42 218 -59 183 q 6 284 -25 253 q 82 340 37 316 q 179 377 126 364 "},"/":{"x_min":97.671875,"x_max":844.390625,"ha":605,"o":"m 843 1001 q 522 453 682 727 q 201 -94 362 179 q 178 -118 191 -111 q 149 -125 164 -125 q 113 -115 130 -125 q 97 -88 97 -105 q 98 -81 97 -85 q 101 -73 99 -76 q 417 475 260 202 q 734 1024 575 748 q 758 1046 744 1039 q 789 1053 773 1053 q 829 1041 815 1053 q 844 1011 844 1029 q 843 1001 844 1004 "},"K":{"x_min":-290.953125,"x_max":866.09375,"ha":604,"o":"m -229 -36 q -249 -21 -238 -32 q -269 4 -259 -10 q -284 36 -278 18 q -290 73 -290 54 q -271 126 -290 100 q -262 139 -267 131 q -248 153 -256 146 q -231 165 -240 160 q -213 170 -223 170 q -205 169 -209 170 q -198 165 -201 168 q -185 147 -191 161 q -171 117 -179 132 q -154 90 -164 102 q -132 78 -145 78 q -84 100 -109 78 q -31 162 -58 123 q 21 254 -5 202 q 74 366 48 307 q 125 490 101 426 q 171 615 149 554 q 212 731 193 676 q 245 831 231 787 q 267 903 259 874 q 278 939 276 931 q 300 969 284 960 q 333 979 315 979 q 372 963 358 979 q 385 905 385 947 q 385 891 385 898 q 384 875 385 883 q 375 820 382 855 q 356 740 368 786 q 333 655 343 695 q 301 556 322 615 q 460 672 385 611 q 592 778 535 734 q 689 852 649 823 q 756 897 729 881 q 800 921 784 914 q 826 927 816 927 q 843 922 836 927 q 856 909 851 916 q 863 894 861 902 q 866 881 866 886 q 860 859 866 870 q 843 841 854 849 q 743 768 795 808 q 638 686 691 728 q 535 600 585 643 q 439 520 484 558 q 359 457 394 482 q 299 414 324 433 q 366 316 335 366 q 428 226 398 267 q 488 145 459 185 q 543 66 517 106 q 555 39 552 52 q 559 15 559 26 q 551 -16 559 -2 q 532 -38 543 -29 q 509 -51 520 -47 q 489 -56 497 -56 q 446 -40 466 -56 q 412 0 426 -24 q 377 47 391 27 q 352 84 363 67 q 329 120 340 101 q 301 164 318 138 q 262 225 284 190 q 203 314 240 259 q 124 173 167 239 q 35 56 81 107 q -59 -25 -9 4 q -160 -55 -108 -55 q -196 -50 -179 -55 q -229 -36 -213 -46 "},"7":{"x_min":-80.03125,"x_max":508.671875,"ha":467,"o":"m 394 634 q 481 620 455 634 q 508 581 508 606 q 486 526 508 558 q 426 459 465 495 q 383 399 416 447 q 325 307 350 350 q 259 197 301 264 q 181 80 217 130 q 120 -9 145 30 q 75 -74 94 -49 q 25 -112 44 -114 q -12 -111 7 -111 q -58 -114 -36 -111 q -80 -97 -80 -117 q -64 -58 -80 -76 q -30 -8 -49 -38 q 18 61 -12 21 q 74 139 50 101 q 137 232 99 177 q 200 324 174 288 q 259 407 226 360 q 308 478 292 455 q 330 516 325 501 l 180 520 q 44 526 83 524 q -14 536 5 529 q -39 554 -34 543 q -44 583 -44 566 q -35 614 -44 602 q -12 633 -26 626 q 17 641 1 639 q 48 643 33 643 q 67 642 59 643 q 78 642 75 642 l 394 634 "},"d":{"x_min":36.625,"x_max":836.921875,"ha":656,"o":"m 484 137 q 483 134 483 136 q 482 130 483 132 q 489 105 482 118 q 508 92 495 92 q 516 93 514 92 q 595 130 555 105 q 671 185 634 155 q 738 246 708 215 q 790 301 769 277 q 811 313 799 313 q 829 303 821 313 q 836 278 836 294 q 829 247 836 265 q 806 209 822 229 q 724 124 766 165 q 639 52 682 84 q 554 2 596 21 q 471 -16 512 -16 q 393 11 421 -16 q 364 95 364 39 q 364 102 364 99 q 365 109 364 106 q 325 57 349 81 q 271 17 301 34 q 211 -7 242 1 q 151 -16 180 -16 q 105 -10 126 -16 q 68 11 84 -3 q 45 49 53 26 q 36 105 36 72 q 54 213 36 162 q 101 307 71 264 q 167 384 130 350 q 245 443 205 419 q 326 480 286 467 q 399 493 366 493 q 465 480 438 493 q 491 461 479 473 q 496 473 493 467 q 508 501 503 489 q 516 518 514 513 q 527 547 518 524 q 549 599 537 569 q 576 664 562 630 q 603 729 591 699 q 624 782 615 760 q 635 810 633 804 q 648 843 640 827 q 667 871 656 859 q 693 890 678 883 q 727 897 708 897 q 770 886 753 897 q 787 843 787 874 q 784 816 787 830 q 776 790 780 803 q 766 764 771 777 q 757 741 761 752 q 686 593 723 673 q 612 433 649 514 q 542 276 575 352 q 484 137 509 199 m 463 402 q 378 385 423 401 q 284 332 326 367 q 211 246 241 297 q 178 130 182 196 q 201 103 178 103 q 255 114 229 103 q 304 146 281 126 q 348 192 328 166 q 386 246 368 218 q 417 301 403 274 q 441 352 431 328 q 451 373 444 360 q 463 402 456 386 "},",":{"x_min":122.765625,"x_max":413.03125,"ha":500,"o":"m 408 158 q 301 1 354 78 q 195 -155 248 -75 q 170 -179 183 -171 q 146 -186 158 -186 q 129 -181 136 -186 q 122 -166 122 -176 q 125 -155 122 -160 q 182 1 154 -75 q 238 158 209 78 q 255 183 244 172 q 280 201 266 194 q 310 212 294 208 q 341 215 326 215 q 391 205 370 215 q 413 175 413 194 q 408 158 413 166 "},"Y":{"x_min":-31.875,"x_max":775.203125,"ha":600,"o":"m 191 451 q 118 554 151 498 q 71 676 86 611 q 55 749 60 715 q 51 812 51 783 q 61 882 51 851 q 87 934 71 913 q 126 967 104 956 q 172 979 147 979 q 221 927 221 979 q 218 903 221 917 q 210 870 214 888 q 202 833 206 853 q 198 794 198 813 q 207 714 198 754 q 232 648 217 674 q 269 590 248 621 q 311 535 289 558 l 362 568 q 441 611 402 594 q 513 660 481 629 q 557 718 538 690 q 591 772 577 747 q 613 817 604 797 q 624 851 621 838 q 636 900 630 880 q 654 933 642 921 q 686 952 666 946 q 742 959 707 959 q 775 912 775 959 q 772 889 775 910 q 756 832 769 868 q 715 747 743 796 q 638 640 688 698 q 571 582 607 610 q 497 529 535 554 q 419 480 459 503 q 341 433 380 456 l 311 415 l 174 156 q 146 98 155 118 q 137 71 138 78 q 126 9 137 35 q 100 -33 115 -16 q 65 -59 84 -50 q 29 -67 46 -67 q -13 -52 4 -67 q -31 -8 -31 -37 q -31 9 -31 2 q -26 27 -30 16 q -13 56 -22 37 q 12 111 -4 75 l 191 451 "},"E":{"x_min":-45.4375,"x_max":970.53125,"ha":756,"o":"m 592 559 q 613 556 602 559 q 631 549 623 554 q 644 538 639 544 q 649 524 649 531 q 635 502 649 514 q 588 482 621 491 q 500 466 555 472 q 360 460 444 460 q 270 447 315 460 q 190 411 225 435 q 133 351 155 386 q 111 270 111 316 q 121 200 111 233 q 153 142 132 167 q 207 102 174 117 q 283 87 239 87 q 431 98 372 87 q 530 124 490 108 q 595 158 569 140 q 642 192 620 177 q 688 219 664 208 q 746 229 711 229 q 791 216 775 229 q 807 176 807 202 q 789 137 807 158 q 736 92 770 115 q 653 48 701 69 q 546 11 605 27 q 419 -15 487 -5 q 278 -25 352 -25 q 152 -7 211 -25 q 49 46 93 10 q -20 135 5 82 q -45 262 -45 189 q -16 376 -45 324 q 60 465 11 427 q 169 525 109 504 q 302 556 228 546 q 228 643 245 598 q 211 729 211 689 q 231 802 211 768 q 285 863 250 835 q 364 912 319 891 q 462 948 410 933 q 570 970 514 963 q 680 978 626 978 q 786 967 736 978 q 875 931 836 955 q 940 869 914 906 q 970 781 965 832 q 963 752 970 767 q 943 724 956 737 q 909 704 929 712 q 862 696 889 696 q 839 699 848 696 q 827 709 831 703 q 821 724 822 715 q 820 742 820 732 q 813 797 820 774 q 788 835 805 820 q 743 856 771 849 q 674 864 715 864 q 571 853 624 864 q 472 823 517 843 q 399 775 427 803 q 370 712 370 747 q 388 642 370 672 q 438 595 407 613 q 509 568 469 576 q 592 559 549 559 "},"y":{"x_min":-4.75,"x_max":738.578125,"ha":608,"o":"m 480 430 q 513 452 499 444 q 535 464 526 460 q 553 468 545 467 q 569 469 560 469 q 589 458 583 469 q 595 436 595 448 q 592 419 595 427 l 440 102 q 515 150 472 126 q 596 192 557 173 q 663 222 635 210 q 695 233 691 233 q 725 221 712 233 q 738 188 738 208 q 725 151 738 170 q 678 113 712 131 q 596 68 631 86 q 533 34 560 49 q 485 7 506 19 q 445 -17 464 -4 q 409 -45 427 -30 q 370 -79 391 -59 q 339 -157 354 -120 q 311 -223 324 -194 q 290 -269 299 -251 q 282 -288 282 -286 q 161 -402 227 -402 q 117 -384 134 -402 q 100 -335 100 -366 q 107 -279 100 -307 q 132 -217 114 -250 q 180 -141 150 -183 q 254 -43 209 -99 l 389 231 q 205 46 288 110 q 50 -16 122 -16 q 11 -6 27 -16 q -4 28 -4 4 q 11 105 -4 62 q 30 147 21 128 q 50 186 40 166 q 71 227 60 205 q 95 278 82 250 q 125 343 109 306 q 160 430 141 380 q 196 468 174 456 q 238 480 217 480 q 273 470 259 480 q 288 444 288 460 q 285 430 288 436 l 161 171 q 151 140 151 151 q 160 130 151 130 q 179 137 167 130 q 200 154 190 145 l 480 430 "},"\"":{"x_min":217.03125,"x_max":722.3125,"ha":578,"o":"m 718 927 q 659 831 690 879 q 596 734 628 782 q 534 639 564 686 q 474 548 503 592 q 445 521 463 531 q 413 512 428 512 q 394 517 401 512 q 386 532 386 522 q 388 540 386 536 q 391 548 389 543 q 441 650 416 599 q 491 750 467 701 q 537 844 515 798 q 577 927 558 889 q 591 946 582 938 q 612 960 600 954 q 637 968 623 965 q 663 970 650 970 q 704 962 687 970 q 722 940 722 954 q 721 933 722 937 q 718 927 720 930 m 514 927 q 461 831 489 880 q 406 735 434 783 q 350 639 378 687 q 298 548 323 592 q 272 521 288 531 q 242 512 257 512 q 223 517 230 512 q 217 531 217 522 q 218 539 217 535 q 221 548 220 543 q 264 650 242 599 q 305 750 285 701 q 344 844 326 798 q 379 927 363 889 q 411 960 389 950 q 459 970 434 970 q 501 962 483 970 q 518 940 518 954 q 518 933 518 937 q 514 927 517 930 "},"g":{"x_min":76.640625,"x_max":790.125,"ha":640,"o":"m 385 493 q 438 485 415 493 q 476 469 460 478 q 507 445 493 458 q 527 457 516 451 q 548 465 537 461 q 571 469 560 469 q 617 457 601 469 q 634 427 634 444 q 629 410 634 419 l 470 109 l 483 121 q 615 194 563 168 q 697 234 666 221 q 740 250 727 247 q 757 253 754 253 q 781 241 773 253 q 790 212 790 229 q 778 172 790 192 q 744 143 767 151 q 673 109 714 127 q 588 69 632 91 q 500 21 544 48 q 417 -37 455 -5 l 285 -276 q 256 -339 269 -314 q 229 -377 242 -363 q 203 -397 217 -392 q 172 -402 189 -402 q 130 -384 145 -402 q 115 -340 115 -366 q 128 -277 115 -313 q 164 -199 141 -241 q 221 -112 187 -158 q 295 -18 254 -66 l 379 88 q 328 47 353 64 q 280 20 303 30 q 237 4 257 9 q 202 0 217 0 q 151 12 174 0 q 112 47 128 25 q 86 100 95 69 q 76 166 76 130 q 105 301 76 241 q 179 404 134 362 q 279 470 224 446 q 385 493 333 493 m 360 373 q 298 357 328 373 q 245 315 268 341 q 208 255 222 289 q 195 185 195 221 q 197 162 195 174 q 204 139 198 149 q 221 121 210 128 q 252 113 232 113 q 285 126 266 113 q 325 158 305 139 q 366 201 346 177 q 401 246 385 224 q 427 287 417 269 q 436 314 436 305 q 428 340 436 328 q 408 358 420 351 q 383 369 396 366 q 360 373 370 373 "},"e":{"x_min":19.671875,"x_max":621.25,"ha":477,"o":"m 351 400 q 345 400 347 400 q 339 400 342 400 q 290 390 313 400 q 249 363 268 380 q 216 326 231 347 q 190 284 202 305 q 171 244 179 263 q 159 212 163 225 q 208 240 183 225 q 256 270 233 256 q 295 296 278 284 q 318 311 311 307 q 360 347 349 330 q 372 376 372 364 q 365 392 372 386 q 351 400 359 398 m 375 493 q 459 466 432 493 q 487 391 487 439 q 472 331 487 362 q 421 268 457 300 q 323 202 384 236 q 169 134 261 168 q 190 104 172 115 q 237 92 208 92 q 304 102 268 92 q 374 125 339 111 q 442 156 409 139 q 502 187 476 172 q 547 213 529 202 q 571 227 565 224 q 582 231 577 231 q 592 232 588 232 q 605 228 600 232 q 614 220 611 225 q 619 209 618 215 q 621 199 621 203 q 619 184 621 193 q 609 165 618 176 q 587 147 606 162 q 537 111 567 132 q 466 68 506 91 q 380 27 425 46 q 286 -4 335 8 q 190 -16 238 -16 q 118 -1 149 -16 q 64 40 86 14 q 31 101 42 67 q 19 174 19 136 q 31 238 19 203 q 64 308 42 273 q 117 377 86 343 q 188 436 149 411 q 275 478 227 462 q 375 493 322 493 "},"J":{"x_min":-227.203125,"x_max":998.34375,"ha":718,"o":"m 550 431 q 459 254 508 338 q 354 107 410 170 q 237 7 298 44 q 111 -29 176 -29 q 34 -16 73 -29 q -44 21 -4 -4 q -125 88 -84 47 q -208 187 -166 129 q -223 210 -219 199 q -227 236 -227 222 q -220 261 -227 246 q -202 289 -214 276 q -172 313 -189 303 q -132 323 -154 323 q -107 318 -118 323 q -86 302 -95 314 q 21 172 -31 223 q 126 122 74 122 q 202 147 164 122 q 277 219 240 172 q 352 334 314 266 q 427 488 389 402 l 606 850 q 486 851 533 851 q 421 851 439 851 q 399 856 409 851 q 382 870 389 862 q 371 888 375 878 q 367 908 367 898 q 398 951 383 939 q 446 963 413 963 q 458 962 452 963 q 471 962 465 962 q 572 965 521 962 q 672 970 622 967 q 772 976 722 973 q 870 979 822 979 q 934 976 909 979 q 973 970 959 974 q 992 959 987 965 q 998 944 998 952 q 985 915 998 933 q 957 888 971 897 q 917 872 943 878 q 849 866 891 866 q 806 864 829 866 q 754 859 782 862 l 550 431 "},"|":{"x_min":198.046875,"x_max":670.765625,"ha":574,"o":"m 670 1066 l 303 -139 l 198 -139 l 559 1066 l 670 1066 "},"^":{"x_min":-101.0625,"x_max":503.921875,"ha":447,"o":"m 503 552 q 503 548 503 550 q 503 543 503 545 q 497 519 503 531 q 479 500 490 508 q 456 487 469 492 q 431 482 443 482 q 404 491 416 482 q 390 516 393 499 q 351 680 370 598 q 313 844 333 762 q 240 767 274 803 q 172 694 206 730 q 104 622 139 659 q 31 545 69 585 q -23 499 3 513 q -69 486 -50 486 q -92 492 -83 486 q -101 509 -101 498 q -96 525 -101 516 q -82 545 -92 534 q 9 644 -34 596 q 97 738 53 691 q 185 831 141 784 q 277 930 229 878 l 416 930 q 438 832 427 878 q 460 741 449 786 q 481 650 470 696 q 503 552 492 604 "},"q":{"x_min":20.34375,"x_max":714.84375,"ha":541,"o":"m 400 340 q 385 364 395 353 q 362 381 376 373 q 326 388 347 388 q 252 366 286 388 q 193 311 219 345 q 154 237 168 278 q 140 158 140 196 q 150 115 140 128 q 177 103 160 103 q 224 117 200 103 q 277 160 249 131 q 335 234 304 189 q 400 340 365 279 m 252 -179 q 238 -211 246 -193 q 229 -244 229 -229 q 244 -259 229 -259 q 268 -244 255 -259 q 298 -204 282 -229 q 331 -147 314 -179 q 366 -79 349 -114 q 400 -7 383 -43 q 431 59 417 27 q 456 115 445 90 q 475 153 467 140 q 512 188 490 172 q 559 221 533 204 q 613 253 584 237 q 670 290 641 270 q 687 294 679 294 q 707 281 700 294 q 714 248 714 267 q 711 221 714 235 q 702 194 708 207 q 686 169 695 181 q 663 151 676 158 l 567 93 q 538 55 552 82 q 507 -8 523 28 q 474 -89 492 -45 q 435 -176 457 -132 q 389 -261 414 -220 q 333 -333 364 -301 q 265 -383 302 -364 q 182 -402 227 -402 q 144 -396 162 -402 q 114 -379 127 -390 q 94 -352 101 -368 q 86 -317 86 -337 q 87 -295 86 -304 q 91 -275 88 -286 q 103 -247 94 -264 q 125 -202 111 -231 l 240 25 q 195 -5 219 5 q 146 -16 172 -16 q 90 -3 113 -16 q 50 32 66 10 q 27 84 35 54 q 20 145 20 113 q 37 252 20 204 q 83 340 55 301 q 147 407 111 378 q 218 455 183 436 q 285 483 253 474 q 337 493 316 493 q 386 483 366 493 q 421 462 407 474 q 447 432 437 448 q 468 450 458 442 q 486 463 477 457 q 502 469 495 469 q 537 456 524 469 q 550 423 550 442 q 541 389 550 407 l 252 -179 "},"b":{"x_min":56.96875,"x_max":826.078125,"ha":614,"o":"m 411 380 q 334 361 373 380 q 264 312 295 343 q 214 243 233 282 q 194 166 194 205 q 196 144 194 155 q 205 123 198 132 q 223 107 211 113 q 256 101 236 101 q 332 120 295 101 q 398 169 369 139 q 445 238 427 200 q 463 315 463 276 q 461 337 463 325 q 454 358 459 348 q 438 374 448 367 q 411 380 428 380 m 468 107 q 346 5 411 37 q 206 -26 281 -26 q 136 -14 164 -26 q 90 17 107 -2 q 64 65 72 37 q 56 122 56 92 q 65 194 56 157 q 88 265 74 231 q 104 303 98 288 q 114 328 110 318 q 121 346 118 339 q 128 363 124 354 q 136 382 131 371 q 149 411 141 394 l 347 851 q 359 868 351 860 q 377 883 366 876 q 399 893 387 889 q 423 897 411 897 q 466 885 454 897 q 479 855 479 872 q 472 825 479 841 q 457 796 465 809 q 362 600 407 699 q 267 404 318 501 q 314 437 289 421 q 364 465 338 453 q 419 485 391 478 q 478 493 448 493 q 520 485 499 493 q 560 461 542 477 q 589 423 578 446 q 600 370 600 400 q 596 343 600 364 q 584 298 592 323 q 565 245 577 272 q 541 198 554 219 q 553 189 545 191 q 570 187 560 187 q 632 196 601 187 q 690 216 663 204 q 741 240 718 227 q 779 263 764 253 q 797 271 788 271 q 817 261 809 271 q 826 235 826 251 q 819 204 826 219 q 796 170 813 189 q 734 136 765 152 q 672 108 704 120 q 607 89 640 96 q 540 82 574 82 q 500 88 518 82 q 468 107 482 94 "},"D":{"x_min":120.046875,"x_max":1023.4375,"ha":947,"o":"m 629 611 q 599 555 617 590 q 556 478 580 520 q 504 386 532 435 q 445 287 476 337 q 384 190 415 238 q 322 101 352 142 q 463 139 396 109 q 591 213 531 168 q 699 313 650 257 q 783 427 748 368 q 837 546 818 486 q 857 659 857 606 q 846 741 857 704 q 812 807 834 779 q 754 851 789 835 q 671 866 718 866 q 582 858 627 866 q 497 835 538 849 q 422 802 457 821 q 364 760 388 782 q 316 700 337 730 q 275 647 295 670 q 232 608 255 623 q 178 593 209 593 q 120 644 120 593 q 141 715 120 677 q 199 789 162 752 q 289 861 237 826 q 403 921 341 895 q 536 963 465 947 q 681 978 607 978 q 832 952 768 978 q 939 882 897 927 q 1002 775 982 836 q 1023 644 1023 714 q 999 496 1023 573 q 928 344 975 419 q 814 202 882 269 q 657 84 746 135 q 461 4 569 33 q 229 -25 354 -25 q 186 -8 202 -25 q 170 33 170 8 q 177 71 170 53 q 195 105 184 90 l 474 659 q 513 708 493 690 q 549 737 532 727 q 578 750 565 747 q 598 753 591 753 q 641 735 628 753 q 654 693 654 718 q 647 652 654 674 q 629 611 640 630 "},"z":{"x_min":-29.84375,"x_max":766.390625,"ha":574,"o":"m 293 -56 q 293 -46 293 -51 q 292 -35 293 -41 q 207 -82 244 -60 q 145 -122 170 -103 q 106 -154 120 -140 q 93 -178 93 -169 q 106 -207 93 -196 q 143 -219 120 -219 q 187 -204 162 -219 q 235 -165 212 -189 q 275 -112 258 -141 q 293 -56 291 -84 m 704 322 q 715 328 709 327 q 726 330 720 329 q 754 318 741 330 q 766 291 766 305 q 764 280 766 285 q 756 270 761 276 q 705 221 735 246 q 633 167 674 196 q 539 105 592 139 q 416 31 485 72 q 416 23 416 27 q 417 14 417 18 q 403 -56 417 -20 q 367 -128 390 -93 q 315 -195 345 -164 q 251 -250 284 -227 q 182 -288 217 -274 q 114 -302 147 -302 q 55 -294 82 -302 q 9 -272 28 -286 q -19 -237 -9 -257 q -29 -193 -29 -217 q -13 -145 -29 -170 q 37 -89 2 -119 q 128 -26 73 -60 q 262 48 184 8 q 238 53 250 52 q 214 54 225 54 q 178 53 198 54 q 137 52 158 52 q 105 53 120 52 q 79 56 90 54 q 60 62 67 58 q 53 74 53 67 q 61 104 53 88 q 88 140 68 119 q 142 192 108 162 q 230 265 177 222 l 375 372 q 301 370 370 372 q 107 368 231 368 q 82 377 90 368 q 73 396 73 387 q 78 418 74 406 q 88 441 82 430 q 105 459 95 451 q 128 466 115 466 q 172 466 141 466 q 241 467 202 467 q 322 467 280 467 q 400 468 364 468 q 463 468 437 468 q 498 469 490 469 q 518 465 510 469 q 529 455 525 461 q 535 441 533 448 q 536 428 536 434 q 531 404 536 416 q 515 378 526 392 q 485 349 503 364 q 441 315 467 334 q 424 303 436 311 q 396 282 413 294 q 361 256 380 270 q 322 227 341 242 q 223 154 277 194 l 237 154 q 318 142 280 154 q 382 109 356 130 q 487 169 440 141 q 574 224 535 198 q 645 274 613 250 q 704 322 677 299 "},"w":{"x_min":23.0625,"x_max":939.34375,"ha":773,"o":"m 103 331 q 137 407 124 378 q 162 452 151 436 q 184 473 173 467 q 212 478 196 478 q 257 462 238 478 q 276 419 276 445 q 274 407 276 413 q 269 395 272 401 l 154 122 q 150 110 151 117 q 149 100 149 104 q 153 87 149 91 q 161 82 157 82 q 176 86 168 82 q 194 98 184 89 q 220 121 205 106 q 258 158 236 135 q 301 211 279 180 q 345 278 324 243 q 385 348 366 313 q 417 415 403 384 q 435 447 427 435 q 451 467 443 460 q 467 476 459 474 q 486 478 475 478 q 527 442 527 478 q 525 430 526 437 q 522 415 525 423 l 416 102 q 433 85 416 85 q 465 98 445 86 q 505 126 485 109 q 543 166 526 143 q 569 213 561 189 q 599 303 584 258 q 632 386 615 349 q 669 447 649 423 q 714 473 689 471 q 749 459 735 473 q 763 423 763 445 q 756 366 763 396 q 737 305 749 335 q 710 246 726 274 q 677 194 694 217 q 697 180 682 180 q 747 184 723 180 q 792 196 770 188 q 836 214 814 204 q 882 240 858 225 q 904 247 893 247 q 928 237 917 247 q 939 210 939 227 q 926 180 939 196 q 891 149 912 164 q 842 122 869 134 q 786 99 814 109 q 732 83 758 89 q 686 78 706 78 q 608 99 648 78 q 509 12 560 42 q 405 -16 458 -16 q 335 8 356 -16 q 314 82 314 33 q 218 7 263 31 q 127 -16 174 -16 q 77 -9 97 -16 q 45 10 57 -2 q 28 40 33 23 q 23 78 23 57 q 32 148 23 111 q 55 219 42 185 q 81 283 68 254 q 103 331 94 313 "},"$":{"x_min":-84.78125,"x_max":817.265625,"ha":637,"o":"m 326 638 q 324 630 324 634 q 324 622 324 626 q 337 579 324 600 q 379 539 350 558 q 440 659 410 600 q 501 780 471 719 q 439 751 469 767 q 384 716 408 735 q 345 678 360 698 q 326 638 329 659 m 480 265 q 480 269 480 267 q 480 274 480 271 q 475 298 480 287 q 458 320 470 309 q 429 343 446 331 q 387 370 412 355 q 322 243 355 307 q 257 115 290 179 q 337 132 299 119 q 405 164 375 145 q 455 209 435 184 q 480 265 474 235 m 742 1066 q 709 1002 726 1034 q 676 937 693 970 l 682 937 q 736 932 711 937 q 779 913 761 926 q 807 881 796 901 q 817 834 817 862 q 777 721 817 775 q 663 622 738 668 q 611 604 632 604 q 580 616 591 604 q 569 647 569 629 q 584 691 569 668 q 631 730 598 714 q 654 743 642 735 q 673 760 665 751 q 687 778 682 769 q 693 796 693 788 q 683 812 693 809 q 660 816 674 816 q 637 815 649 816 q 612 811 625 813 q 451 495 530 652 l 541 438 q 618 373 594 408 q 642 299 642 337 q 640 276 642 286 q 593 169 631 221 q 497 77 556 118 q 360 11 438 36 q 194 -13 283 -13 l 191 -13 l 127 -139 q 103 -171 118 -161 q 75 -181 88 -181 q 46 -173 59 -181 q 34 -153 34 -166 q 38 -139 34 -146 l 103 -8 q 17 10 53 -2 q -41 41 -18 23 q -74 80 -63 59 q -84 126 -84 102 q -63 201 -84 162 q -4 274 -42 239 q 84 336 33 308 q 196 377 135 363 l 200 377 q 219 365 213 377 q 225 339 225 354 q 223 315 225 325 q 213 298 220 305 q 193 283 206 290 q 161 269 181 276 q 90 226 116 251 q 64 177 64 201 q 88 139 64 155 q 166 116 111 122 q 241 265 204 191 q 316 414 278 339 q 255 458 280 436 q 215 501 230 480 q 194 545 200 522 q 187 592 187 568 q 203 664 187 629 q 247 732 219 699 q 312 794 275 765 q 392 848 349 824 q 481 892 435 873 q 572 922 526 910 l 644 1066 q 670 1098 654 1088 q 701 1108 686 1108 q 732 1101 719 1108 q 744 1078 744 1093 q 744 1075 744 1077 q 744 1072 744 1073 l 742 1066 "},"™":{"x_min":47.46875,"x_max":1058.03125,"ha":1156,"o":"m 281 888 l 281 423 l 189 423 l 189 888 l 47 888 l 47 958 l 423 958 l 423 888 l 281 888 m 584 873 l 584 423 l 497 423 l 497 958 l 653 958 l 777 514 l 902 958 l 1058 958 l 1058 423 l 971 423 l 971 873 l 838 423 l 717 423 l 584 873 "},"\\":{"x_min":-237.375,"x_max":509.34375,"ha":200,"o":"m 508 1001 q 187 453 347 727 q -133 -94 27 179 q -156 -118 -143 -111 q -185 -125 -170 -125 q -221 -115 -204 -125 q -237 -88 -237 -105 q -236 -81 -237 -85 q -233 -73 -236 -76 q 82 475 -74 202 q 399 1024 240 748 q 423 1046 408 1039 q 454 1053 438 1053 q 494 1041 480 1053 q 509 1011 509 1029 q 508 1001 509 1004 "},"~":{"x_min":-36.625,"x_max":639.5625,"ha":582,"o":"m 639 923 q 538 818 590 851 q 425 785 485 785 q 284 824 370 785 q 153 875 198 870 q 118 872 134 875 q 85 860 101 868 q 52 839 69 852 q 19 807 36 826 l -36 859 q 62 962 12 931 q 173 993 112 993 q 315 950 225 993 q 394 912 358 925 q 456 900 430 900 q 515 917 487 900 q 580 975 543 933 l 639 923 "},"-":{"x_min":292.3125,"x_max":676.859375,"ha":668,"o":"m 651 291 q 670 281 663 291 q 676 259 676 271 q 663 226 676 242 q 621 211 651 211 l 315 211 q 298 219 303 211 q 292 239 292 227 q 296 257 292 248 q 307 274 299 266 q 327 286 315 281 q 357 291 339 291 l 651 291 "},"Q":{"x_min":142.421875,"x_max":1103.46875,"ha":892,"o":"m 142 311 q 171 498 142 410 q 251 660 201 585 q 366 793 301 734 q 503 893 432 852 q 648 956 575 934 q 788 978 722 978 q 901 965 847 978 q 995 923 954 951 q 1065 853 1037 895 q 1102 754 1093 811 q 1103 748 1103 750 q 1103 741 1103 745 q 1088 701 1103 715 q 1055 687 1072 687 q 1018 708 1035 687 q 986 768 1001 729 q 913 837 961 815 q 806 859 866 859 q 696 840 754 859 q 583 786 639 821 q 476 703 527 752 q 387 596 425 655 q 325 470 348 537 q 303 329 303 402 q 318 227 303 269 q 357 160 333 186 q 412 123 381 134 q 474 111 442 111 l 477 111 q 474 127 475 119 q 473 141 473 134 q 478 167 473 156 q 492 186 483 179 q 511 198 500 194 q 534 202 522 202 q 574 189 555 202 q 602 149 594 176 q 706 242 663 189 q 774 362 748 295 q 811 515 800 430 q 823 706 823 600 q 839 761 823 744 q 876 779 855 779 q 913 764 899 779 q 935 726 927 750 q 946 671 943 701 q 949 607 949 640 q 923 409 949 501 q 853 242 897 317 q 748 112 808 168 q 621 25 689 56 q 651 -65 632 -29 q 693 -124 670 -102 q 742 -156 716 -147 q 796 -166 768 -166 q 843 -161 819 -166 q 887 -147 866 -155 q 924 -129 908 -139 q 950 -110 941 -120 q 957 -106 954 -108 q 965 -105 961 -105 q 984 -115 975 -105 q 992 -141 992 -125 q 985 -169 992 -154 q 960 -201 978 -185 q 876 -267 921 -246 q 785 -289 831 -289 q 702 -271 743 -289 q 625 -219 661 -254 q 558 -132 589 -184 q 506 -10 528 -80 q 477 -14 491 -12 q 448 -15 463 -15 q 335 1 390 -15 q 237 55 280 17 q 168 157 194 94 q 142 311 142 219 "},"M":{"x_min":-86.140625,"x_max":1014.625,"ha":996,"o":"m 798 48 q 813 183 805 106 q 832 343 822 259 q 851 491 843 427 q 870 630 859 556 q 799 511 834 560 q 732 399 765 461 q 671 285 699 336 q 627 203 644 234 q 596 163 611 182 q 565 130 580 144 q 535 107 550 115 q 505 99 520 99 q 475 107 486 99 q 464 131 464 115 q 464 138 464 134 q 466 144 465 141 q 460 338 462 240 q 450 499 458 436 q 450 543 450 521 q 451 588 450 566 q 396 477 423 526 q 333 363 368 427 q 262 240 299 299 q 189 132 225 181 q 116 49 152 84 q 48 2 81 15 q 0 -14 20 -9 q -37 -19 -21 -19 q -74 -9 -62 -19 q -86 14 -86 0 q -71 49 -86 31 q -31 78 -57 67 q 36 131 0 90 q 112 233 73 173 q 191 366 151 293 q 269 514 231 439 q 340 662 307 590 q 399 792 373 734 q 441 890 425 851 q 462 938 458 929 q 489 969 472 959 q 523 978 505 978 q 557 965 548 978 q 567 918 567 952 q 576 837 572 875 q 582 760 579 800 q 586 675 585 720 q 587 569 587 629 q 591 491 587 526 q 596 392 596 456 q 728 620 665 507 q 837 810 790 733 q 915 925 883 886 q 966 964 947 964 l 971 964 q 975 964 973 964 q 979 965 977 965 q 1005 944 995 965 q 1014 891 1014 924 q 1006 809 1011 858 q 993 700 1001 759 q 978 575 986 640 q 962 444 970 509 q 947 318 954 379 q 935 208 940 257 q 933 190 933 199 q 933 171 933 181 q 934 135 933 153 q 935 100 935 118 q 933 59 935 80 q 922 22 931 38 q 893 -5 912 5 q 838 -15 873 -15 q 809 -1 820 -15 q 798 48 798 12 "},"C":{"x_min":-39.34375,"x_max":786.734375,"ha":638,"o":"m 786 856 q 780 812 786 838 q 764 758 775 786 q 738 703 753 731 q 703 654 722 676 q 660 618 683 632 q 611 604 637 604 q 595 605 604 604 q 575 610 585 607 q 558 621 565 614 q 551 641 551 629 q 555 660 551 649 q 571 685 560 671 q 598 717 583 699 q 615 748 612 736 q 626 779 618 759 q 634 814 634 798 q 624 846 634 834 q 593 857 615 857 q 527 838 564 857 q 459 795 491 819 q 386 726 427 771 q 306 631 345 682 q 233 526 267 581 q 173 418 199 472 q 133 316 148 365 q 119 227 119 267 q 145 147 119 177 q 233 118 172 118 q 318 140 261 118 q 412 184 374 162 q 487 232 449 206 q 560 284 526 259 q 623 329 595 309 q 670 357 652 349 q 678 360 674 360 q 692 343 689 360 q 696 305 696 326 q 693 277 696 294 q 674 239 690 261 q 646 209 666 230 q 595 162 626 188 q 525 107 564 135 q 440 54 486 78 q 322 8 394 31 q 196 -14 250 -14 q 88 0 133 -14 q 15 42 44 15 q -26 107 -12 69 q -39 189 -39 145 q -22 309 -39 245 q 24 438 -5 373 q 96 570 54 504 q 188 696 138 636 q 294 807 238 756 q 409 897 350 859 q 528 956 468 935 q 645 978 588 978 q 699 972 674 978 q 745 951 725 965 q 775 913 764 937 q 786 856 786 890 "},"[":{"x_min":-238.734375,"x_max":653.8125,"ha":53,"o":"m 621 1070 q 645 1061 637 1070 q 653 1039 653 1052 q 648 1017 653 1028 q 633 997 643 1006 q 609 982 623 988 q 573 976 594 976 l 440 976 q 182 466 310 720 q -75 -43 54 212 l 58 -43 q 79 -51 72 -43 q 86 -70 86 -59 q 81 -91 86 -80 q 66 -112 75 -103 q 42 -128 56 -122 q 10 -134 28 -134 l -238 -134 q 66 467 -86 166 q 371 1070 218 769 l 621 1070 "},"L":{"x_min":-111.90625,"x_max":805.734375,"ha":676,"o":"m 16 141 q 26 123 16 132 q 55 106 35 114 q 107 93 75 98 q 183 87 139 88 q 142 110 162 98 q 102 131 121 122 q 67 148 83 141 q 41 154 52 154 q 16 141 16 154 m 619 896 q 644 932 630 916 q 674 958 658 948 q 708 973 691 968 q 739 978 725 978 q 776 967 761 978 q 791 934 791 956 q 782 897 791 917 q 705 734 744 816 q 626 573 666 651 q 548 421 586 494 q 475 286 510 348 q 421 182 440 223 q 377 109 402 141 q 473 111 436 113 q 555 118 510 109 q 646 138 600 127 q 745 159 692 148 q 752 161 748 160 q 760 162 756 162 q 793 145 781 162 q 805 107 805 128 q 781 80 805 94 q 714 51 756 65 q 614 24 672 37 q 491 1 557 10 q 351 -14 424 -8 q 207 -20 279 -20 q 63 -8 124 -20 q -35 23 3 2 q -93 71 -74 43 q -111 131 -111 99 q -100 185 -111 163 q -67 221 -88 207 q -18 240 -46 234 q 42 246 9 246 q 86 247 68 246 q 140 232 105 248 q 201 199 176 217 q 244 161 225 180 q 283 242 259 202 q 333 337 307 282 q 387 450 359 392 q 444 564 416 508 q 500 673 473 621 q 550 769 527 725 q 591 845 573 812 q 619 896 609 878 "},"!":{"x_min":255.015625,"x_max":756.890625,"ha":650,"o":"m 433 94 q 420 54 430 73 q 395 20 410 35 q 361 -2 380 6 q 322 -10 342 -10 q 273 9 291 -10 q 255 58 255 29 q 264 101 255 80 q 289 137 274 121 q 326 162 305 153 q 368 172 346 172 q 416 153 398 172 q 434 105 434 134 q 434 100 434 102 q 433 94 434 97 m 752 813 q 685 686 715 742 q 625 575 654 629 q 565 465 596 522 q 497 337 535 408 q 468 308 487 318 q 433 298 449 298 q 411 304 419 298 q 402 322 402 309 q 406 337 402 330 q 444 425 426 385 q 477 503 461 465 q 508 575 493 540 q 539 648 523 611 q 573 725 555 685 q 611 813 590 766 q 626 835 616 826 q 649 851 636 845 q 676 861 661 857 q 704 864 690 864 q 741 855 726 864 q 756 830 756 847 q 752 813 756 822 "}," ":{"x_min":0,"x_max":0,"ha":326},"{":{"x_min":-217.703125,"x_max":595.484375,"ha":76,"o":"m 575 1023 q 590 1015 585 1023 q 595 996 595 1008 q 590 973 595 986 q 576 949 585 960 q 553 930 567 937 q 520 923 539 923 q 444 918 473 923 q 395 901 415 914 q 360 866 375 889 q 326 809 345 844 l 226 621 q 181 544 200 573 q 144 499 162 515 q 105 475 126 482 q 55 463 85 467 q 78 431 71 448 q 84 395 84 413 q 75 347 84 371 q 52 297 66 322 l -93 19 q -100 -2 -101 4 q -73 -30 -100 -21 q 6 -38 -46 -38 q 27 -46 21 -38 q 34 -66 34 -54 q 28 -90 34 -78 q 12 -113 23 -103 q -13 -131 2 -124 q -48 -139 -29 -139 q -174 -114 -132 -139 q -217 -40 -217 -89 q -216 -25 -217 -32 q -214 -10 -215 -18 q -209 6 -212 -1 q -202 27 -207 14 q -188 58 -198 40 q -164 107 -179 77 q -125 183 -148 138 q -67 291 -101 227 q -46 340 -55 315 q -36 384 -36 365 q -45 409 -36 400 q -75 419 -54 419 q -98 427 -90 419 q -105 448 -105 436 q -100 470 -105 458 q -85 491 -94 482 q -60 507 -75 501 q -25 514 -45 514 q 15 520 -2 514 q 50 540 33 526 q 83 575 67 554 q 115 626 99 596 l 222 831 q 281 929 254 891 q 341 988 309 967 q 417 1018 374 1010 q 523 1026 460 1026 l 575 1023 "},"X":{"x_min":-236.703125,"x_max":804.375,"ha":695,"o":"m 644 927 q 676 952 659 941 q 710 971 693 963 q 745 983 728 979 q 775 988 762 988 q 797 982 791 988 q 804 967 804 977 q 791 931 804 953 q 761 886 779 909 q 726 841 744 862 q 695 805 707 819 q 521 612 602 702 q 365 444 439 522 q 394 347 381 388 q 421 272 408 305 q 446 210 434 238 q 475 152 459 181 q 509 91 491 124 q 551 18 527 59 q 554 6 554 12 q 549 -8 554 -2 q 534 -18 543 -14 q 515 -25 526 -23 q 495 -27 505 -27 q 443 -9 469 -27 q 389 49 417 8 q 326 151 360 91 q 252 313 292 212 q 122 186 177 235 q 23 96 67 137 q -53 29 -20 55 q -111 -10 -86 4 q -157 -30 -137 -25 q -197 -35 -177 -35 q -224 -27 -212 -35 q -236 4 -236 -18 q -223 42 -236 25 q -193 74 -210 58 q -159 100 -177 91 q -130 117 -140 109 q -61 171 -99 138 q 19 246 -23 204 q 117 348 63 289 q 223 466 171 408 q 166 625 191 562 q 125 754 141 689 q 107 829 115 796 q 99 881 99 862 q 112 923 99 900 q 145 966 125 946 q 187 1001 164 987 q 227 1015 209 1015 q 264 993 248 1015 q 280 916 280 971 q 279 901 280 906 q 276 891 278 895 q 271 883 274 887 q 265 872 268 878 q 264 863 264 870 q 281 765 264 837 q 328 579 298 693 q 330 573 328 577 l 370 621 q 441 700 409 661 q 505 777 474 739 q 570 853 536 815 q 644 927 603 891 "},"P":{"x_min":-5.421875,"x_max":841.671875,"ha":702,"o":"m 349 364 q 321 295 337 335 q 287 212 305 255 q 248 126 269 168 q 205 49 227 83 q 158 -4 182 16 q 109 -25 134 -25 q 74 -19 88 -25 q 53 -3 61 -12 q 43 18 46 6 q 40 41 40 30 q 45 74 40 57 q 57 105 50 91 l 333 637 q 365 684 350 667 q 394 709 381 701 q 417 719 407 717 q 434 720 427 720 q 457 712 446 720 q 467 681 467 704 q 455 609 467 659 q 413 499 444 559 q 509 503 465 503 q 593 526 552 502 q 659 586 634 551 q 685 667 685 621 q 671 728 685 708 q 633 776 658 748 q 570 821 607 805 q 484 838 533 838 q 369 825 417 838 q 287 792 322 813 q 230 746 253 772 q 190 692 207 719 q 161 638 174 665 q 134 592 148 612 q 103 559 120 571 q 39 559 85 546 q 10 596 26 579 q -5 644 -5 613 q 11 713 -5 676 q 59 787 28 750 q 135 858 90 824 q 235 919 179 893 q 356 962 290 946 q 494 978 421 978 q 624 958 562 978 q 735 900 687 939 q 812 804 784 862 q 841 668 841 746 q 807 539 841 596 q 715 442 773 482 q 581 381 657 402 q 421 360 505 360 q 385 360 403 360 q 349 364 367 361 "},"%":{"x_min":-66.46875,"x_max":889.828125,"ha":819,"o":"m 795 289 q 778 338 795 320 q 731 356 762 356 q 676 336 702 356 q 629 285 649 316 q 596 216 609 254 q 583 142 583 178 q 587 111 583 126 q 598 85 590 96 q 617 66 605 73 q 644 59 628 59 q 702 79 675 59 q 751 133 730 100 q 783 207 771 166 q 795 289 795 248 m 233 581 q 218 644 233 623 q 174 664 202 664 q 114 645 142 664 q 66 595 86 626 q 34 524 46 564 q 22 445 22 485 q 26 414 22 430 q 37 387 30 399 q 56 367 45 375 q 83 359 68 359 q 142 379 114 359 q 189 431 169 399 q 221 502 210 463 q 233 581 233 542 m 116 -158 q 101 -171 110 -167 q 81 -175 92 -175 q 60 -171 71 -175 q 41 -161 50 -168 q 27 -146 33 -155 q 22 -126 22 -137 q 32 -96 22 -111 l 535 632 q 484 607 509 617 q 433 590 459 597 q 379 578 407 583 q 319 570 352 573 q 298 455 319 508 q 243 361 277 401 q 164 299 208 322 q 75 276 120 276 q 12 289 38 276 q -31 327 -14 303 q -57 383 -49 351 q -66 451 -66 415 q -45 558 -66 505 q 10 652 -25 611 q 94 719 46 694 q 197 745 142 745 q 277 716 246 745 q 319 636 308 688 q 402 663 364 648 q 476 697 440 678 q 546 738 511 716 q 622 786 581 760 q 650 803 636 797 q 675 808 663 808 q 709 794 695 808 q 722 758 722 780 q 711 718 722 739 l 233 14 q 312 39 274 27 q 384 59 350 50 q 445 75 417 68 q 491 86 472 82 q 486 128 486 106 q 506 244 486 187 q 559 343 525 300 q 637 413 592 387 q 734 439 682 439 q 796 429 767 439 q 845 399 824 419 q 877 353 866 380 q 889 292 889 326 q 869 171 889 229 q 815 69 849 113 q 734 -1 780 25 q 634 -27 687 -27 q 564 -12 594 -27 q 516 28 535 2 q 331 -41 407 -7 q 208 -100 256 -74 q 116 -158 151 -130 "},"#":{"x_min":-86.8125,"x_max":744.6875,"ha":494,"o":"m 464 558 l 289 558 q 245 472 267 514 q 201 385 223 429 l 376 385 q 420 472 398 429 q 464 558 442 514 m 728 641 q 740 637 737 641 q 744 625 744 632 q 739 603 744 615 q 727 581 734 592 q 710 564 719 571 q 695 558 701 558 l 547 558 q 502 472 524 514 q 457 385 479 429 l 595 385 q 608 381 604 385 q 611 368 611 376 q 607 348 611 359 q 595 328 602 337 q 580 312 588 318 q 565 305 572 305 l 415 305 q 375 227 396 267 q 334 146 354 186 q 294 69 314 107 q 256 0 274 31 q 235 -15 250 -10 q 203 -21 219 -21 q 180 -17 189 -21 q 172 -5 172 -13 q 173 0 172 -4 q 210 71 191 33 q 250 148 230 109 q 291 227 271 187 q 332 305 312 267 l 157 305 q 116 225 137 267 q 74 143 95 183 q 34 65 54 102 q -1 0 14 28 q -22 -14 -7 -10 q -52 -19 -36 -19 q -74 -16 -66 -19 q -83 -5 -83 -12 q -82 0 -83 -4 q -48 67 -67 29 q -7 144 -29 104 q 35 226 13 185 q 76 305 56 267 l -75 305 q -86 319 -86 305 q -82 338 -86 326 q -72 360 -78 349 q -58 378 -66 370 q -43 385 -50 385 l 118 385 q 163 472 141 429 q 208 558 185 514 l 59 558 q 45 563 49 558 q 42 575 42 568 q 46 596 42 585 q 58 618 51 608 q 73 634 65 628 q 89 641 82 641 l 250 641 q 288 715 269 677 q 327 790 308 752 q 365 862 347 827 q 400 927 383 897 q 421 943 405 937 q 452 948 436 948 q 475 944 466 948 q 484 932 484 940 q 483 927 484 929 q 452 864 470 899 q 414 791 434 829 q 373 715 394 754 q 333 641 352 677 l 508 641 q 546 716 526 677 q 586 793 567 755 q 623 866 605 831 q 655 927 641 900 q 676 943 661 937 q 707 948 691 948 q 730 944 721 948 q 739 932 739 940 q 738 927 739 929 q 705 863 723 898 q 668 791 687 828 q 628 715 648 754 q 589 641 608 677 l 728 641 "},"_":{"x_min":-6.109375,"x_max":698.5625,"ha":695,"o":"m 23 -96 q 0 -91 7 -96 q -6 -76 -6 -86 q 0 -57 -6 -67 q 15 -39 5 -48 q 38 -24 25 -30 q 66 -18 52 -18 l 676 -18 q 693 -24 688 -18 q 698 -39 698 -30 q 693 -58 698 -48 q 680 -76 689 -68 q 659 -91 671 -85 q 633 -96 647 -96 l 23 -96 "},"+":{"x_min":-153.28125,"x_max":495.109375,"ha":443,"o":"m 454 434 l 193 434 l 69 173 l -17 173 l 107 434 l -153 434 l -112 520 l 147 520 l 272 781 l 359 781 l 234 520 l 495 520 l 454 434 "},")":{"x_min":-107.15625,"x_max":398.796875,"ha":256,"o":"m 39 -78 q -21 -131 5 -116 q -67 -147 -48 -147 q -96 -135 -86 -147 q -107 -109 -107 -124 q -104 -92 -107 -101 q -93 -78 -101 -84 q 61 127 -7 21 q 179 345 130 233 q 253 573 227 457 q 279 811 279 690 q 255 1041 279 925 q 252 1053 252 1047 q 269 1090 252 1076 q 306 1104 285 1104 q 345 1089 326 1104 q 371 1041 364 1074 q 398 784 398 908 q 376 565 398 672 q 309 354 354 459 q 197 141 264 248 q 39 -78 129 34 "},"'":{"x_min":278.078125,"x_max":585.3125,"ha":455,"o":"m 581 927 q 529 831 556 880 q 473 735 501 783 q 417 639 444 687 q 364 548 389 592 q 338 521 354 531 q 305 512 321 512 q 285 517 293 512 q 278 535 278 523 q 278 541 278 538 q 281 548 279 545 q 324 650 303 599 q 366 750 346 701 q 406 844 387 798 q 440 927 425 889 q 454 946 445 938 q 473 960 462 954 q 497 968 484 965 q 523 970 510 970 q 566 962 548 970 q 585 939 585 954 q 584 933 585 936 q 581 927 583 929 "},"}":{"x_min":-275.359375,"x_max":524.9375,"ha":380,"o":"m -255 -136 q -270 -128 -265 -136 q -275 -109 -275 -121 q -270 -85 -275 -99 q -256 -61 -265 -72 q -233 -43 -247 -50 q -200 -35 -219 -35 q -125 -31 -154 -35 q -76 -14 -96 -27 q -42 20 -56 -2 q -8 78 -27 42 l 88 265 q 133 342 115 313 q 169 387 151 371 q 207 411 187 404 q 257 423 227 419 q 234 455 241 438 q 227 490 227 472 q 236 537 227 512 q 258 590 244 563 l 402 867 q 408 887 408 879 q 381 916 408 908 q 300 925 354 925 q 279 933 286 925 q 272 953 272 942 q 278 978 272 965 q 294 1001 283 990 q 320 1019 305 1011 q 354 1026 335 1026 q 481 1001 438 1026 q 524 925 524 975 q 522 897 524 910 q 518 880 520 888 q 511 859 516 872 q 498 828 506 847 q 474 779 489 809 q 436 704 459 748 q 379 595 413 659 q 358 547 367 571 q 348 503 348 522 q 357 477 348 487 q 389 467 366 467 q 411 459 404 467 q 418 437 418 450 q 413 415 418 427 q 398 394 408 404 q 373 379 388 385 q 339 373 358 373 q 263 346 295 373 q 199 260 231 320 l 94 55 q 37 -42 64 -4 q -22 -102 10 -80 q -97 -131 -54 -123 q -202 -139 -140 -139 l -255 -136 "},"a":{"x_min":42.046875,"x_max":822,"ha":667,"o":"m 339 370 q 277 354 307 370 q 224 311 247 337 q 187 251 201 284 q 174 185 174 219 q 175 157 174 172 q 183 130 177 143 q 201 110 189 118 q 231 102 212 102 q 266 115 246 102 q 307 149 286 128 q 349 194 328 170 q 385 243 369 219 q 412 286 402 267 q 422 314 422 305 q 413 337 422 326 q 392 355 404 347 q 364 366 379 362 q 339 370 349 370 m 809 195 q 776 163 796 183 q 730 119 756 143 q 674 71 704 95 q 614 27 644 47 q 553 -4 583 8 q 497 -16 523 -16 q 456 -6 473 -16 q 428 19 439 3 q 411 56 417 35 q 406 99 406 77 q 408 127 406 113 q 415 153 410 141 q 367 94 394 124 q 309 39 340 64 q 245 -1 278 14 q 177 -16 211 -16 q 135 -9 159 -16 q 91 13 112 -2 q 56 55 70 29 q 42 118 42 81 q 50 185 42 146 q 76 265 59 223 q 120 347 93 307 q 183 420 147 388 q 267 473 220 453 q 371 493 314 493 q 423 485 401 493 q 461 469 446 478 q 493 445 479 458 q 516 457 504 451 q 538 465 526 461 q 557 469 549 469 q 599 455 583 469 q 615 423 615 440 q 615 416 615 419 q 604 383 611 403 q 588 340 597 364 q 570 289 579 316 q 554 238 561 263 q 541 191 546 213 q 537 153 537 169 q 543 120 537 133 q 567 107 550 107 q 591 113 577 107 q 621 130 604 120 q 654 155 637 141 q 688 183 672 169 q 769 261 726 217 q 790 269 779 269 q 812 256 803 269 q 822 227 822 243 q 809 195 822 208 "},"T":{"x_min":-79.359375,"x_max":847.78125,"ha":539,"o":"m 166 40 q 141 4 155 19 q 111 -21 127 -11 q 78 -36 94 -31 q 46 -42 61 -42 q 9 -30 24 -42 q -5 2 -5 -19 q -3 18 -5 9 q 3 38 -2 27 q 106 243 54 145 q 205 427 157 341 q 295 582 252 512 q 389 739 338 653 q 466 853 441 826 q 502 880 491 880 q 544 870 526 880 q 562 841 562 859 q 554 811 562 826 q 510 730 537 777 q 441 597 482 682 q 375 458 401 511 q 324 354 349 406 q 275 253 299 302 q 230 164 251 205 q 193 90 210 122 q 166 40 177 58 m 847 829 q 838 795 847 817 q 812 752 829 773 q 772 715 796 731 q 720 699 749 699 q 704 700 714 699 q 683 706 693 701 q 667 717 674 710 q 660 737 660 725 q 666 754 660 743 q 679 778 672 765 q 693 803 687 791 q 699 824 699 815 q 666 857 699 847 q 557 868 634 868 q 472 854 534 861 q 358 838 409 847 q 261 815 306 828 q 171 788 215 803 q 82 757 127 773 q -13 723 37 740 q -22 720 -18 722 q -30 719 -27 719 q -50 724 -41 719 q -65 737 -59 729 q -75 755 -71 745 q -79 776 -79 765 q -50 816 -79 794 q 27 860 -22 838 q 143 904 76 883 q 288 942 210 925 q 450 968 366 959 q 565 982 535 978 q 691 971 638 982 q 778 939 744 959 q 830 890 813 918 q 847 829 847 862 "},"=":{"x_min":-168.890625,"x_max":625.421875,"ha":413,"o":"m 424 335 l -142 335 q -165 347 -160 335 q -166 376 -171 360 q -144 404 -161 391 q -101 417 -128 417 l 465 417 q 490 404 484 417 q 490 376 496 391 q 467 347 484 360 q 424 335 451 335 m 552 590 l -14 590 q -46 602 -35 590 q -54 631 -57 615 q -32 659 -51 646 q 26 672 -12 672 l 593 672 q 622 659 616 672 q 621 631 628 646 q 596 602 614 615 q 552 590 577 590 "},"N":{"x_min":-82.0625,"x_max":1232.328125,"ha":880,"o":"m 567 913 q 588 811 577 866 q 610 695 599 755 q 631 573 620 635 q 652 451 641 511 q 678 347 662 391 q 704 256 694 303 q 824 487 760 366 q 942 704 887 608 q 1042 867 997 800 q 1119 964 1087 935 q 1149 983 1133 978 q 1180 988 1165 988 q 1217 977 1201 988 q 1232 950 1232 967 q 1228 933 1232 940 q 1218 918 1225 926 q 1165 859 1190 886 q 1118 803 1141 832 q 1071 737 1094 773 q 1022 649 1047 700 q 961 534 992 593 q 902 416 931 474 q 848 302 874 357 q 800 201 822 247 q 760 118 778 154 q 731 61 743 82 q 686 0 712 19 q 640 -21 661 -21 l 635 -21 q 609 -16 621 -21 q 585 -2 596 -11 q 566 22 574 7 q 556 56 558 36 q 536 140 545 99 q 520 224 528 181 q 505 314 513 267 q 489 417 497 361 q 471 517 480 472 q 446 642 461 562 q 395 514 426 575 q 328 372 364 454 q 252 212 293 289 q 167 75 212 135 q 75 -19 122 16 q -18 -55 28 -55 q -37 -51 -27 -55 q -58 -41 -48 -48 q -75 -23 -68 -33 q -82 -1 -82 -13 q -78 15 -82 8 q -67 34 -74 23 q -40 59 -59 48 q 3 82 -21 69 q 57 112 28 95 q 115 158 86 130 q 154 214 132 174 q 203 310 177 255 q 257 431 229 365 q 312 564 285 497 q 364 696 339 632 q 407 811 388 760 q 439 896 427 862 q 454 938 451 931 q 476 968 461 959 q 509 978 491 978 q 507 978 508 978 q 512 978 510 978 q 516 978 514 978 q 546 964 531 978 q 567 913 560 949 "},"2":{"x_min":-67.140625,"x_max":475.4375,"ha":473,"o":"m 423 113 q 427 114 425 113 q 432 114 430 114 q 455 103 446 114 q 465 77 465 92 q 449 37 465 54 q 408 7 433 19 q 355 -10 384 -4 q 324 -16 326 -16 q 281 -13 302 -16 q 235 -4 260 -11 q 179 17 210 3 q 105 55 147 31 q 42 16 65 30 q 7 -4 19 2 q -9 -12 -4 -11 q -17 -14 -14 -14 q -34 -9 -25 -14 q -50 4 -42 -4 q -62 22 -57 12 q -67 44 -67 33 q -62 63 -67 54 q -47 80 -58 73 q 43 132 -2 105 q 132 190 89 160 q 212 252 174 220 q 277 316 249 284 q 321 380 305 348 q 337 444 337 413 q 322 487 337 474 q 282 499 307 499 q 240 493 263 499 q 194 475 217 486 q 148 453 171 465 q 106 431 126 441 q 72 413 87 420 q 49 406 57 406 q 29 411 38 406 q 12 424 19 416 q 2 441 6 432 q -1 461 -1 451 q 14 496 -1 478 q 55 531 29 514 q 114 562 81 548 q 182 589 147 577 q 251 607 217 600 q 314 613 286 613 q 377 605 347 613 q 428 578 406 596 q 462 529 450 559 q 475 454 475 498 q 463 379 475 417 q 420 302 451 342 q 336 221 389 263 q 200 132 282 179 q 262 110 229 119 q 322 101 295 101 q 333 102 317 101 q 362 104 348 103 q 391 108 377 106 q 423 113 405 110 "},"j":{"x_min":-209.578125,"x_max":465.265625,"ha":330,"o":"m 235 501 q 242 533 236 516 q 261 563 248 550 q 290 585 273 577 q 332 594 308 594 q 384 580 369 594 q 400 545 400 567 q 395 516 400 532 q 379 486 389 500 q 352 462 368 472 q 311 453 335 453 q 252 466 269 453 q 235 501 236 479 m 152 86 q 256 164 193 120 q 411 263 320 208 q 430 269 421 269 q 455 257 445 269 q 465 227 465 244 q 451 188 465 209 q 406 151 438 168 l 177 -5 q 150 -28 162 -18 q 126 -47 138 -38 q 102 -66 114 -56 q 73 -86 89 -75 q 14 -182 40 -143 q -37 -247 -12 -222 q -90 -283 -63 -271 q -152 -295 -118 -295 q -197 -282 -184 -295 q -209 -247 -209 -269 q -189 -205 -209 -226 q -143 -161 -170 -183 q -90 -112 -117 -138 q -49 -57 -63 -87 q -10 23 -31 -19 q 31 111 10 67 q 73 201 52 156 q 114 285 94 245 q 150 360 133 326 q 181 419 168 395 q 216 457 194 445 q 257 469 237 469 q 295 457 279 469 q 310 422 310 444 q 308 395 310 407 q 299 367 305 383 q 281 331 292 352 q 252 277 269 309 q 210 198 234 244 q 152 86 185 151 "},"Z":{"x_min":-6.78125,"x_max":936.625,"ha":903,"o":"m 810 861 q 834 869 821 869 q 867 856 852 869 q 882 823 882 843 q 875 798 882 811 q 851 773 868 786 q 795 728 823 753 q 743 680 768 704 q 642 571 693 628 q 540 452 592 513 q 449 329 489 390 q 356 205 409 268 q 406 185 381 199 q 443 157 431 172 q 481 131 456 141 q 531 121 505 121 q 631 141 588 121 q 708 193 674 160 q 771 271 743 227 q 825 364 798 315 q 845 382 834 377 q 868 387 856 387 q 893 382 881 387 q 914 369 905 377 q 930 353 924 362 q 936 337 936 344 q 933 328 936 334 q 864 193 907 256 q 767 84 822 130 q 647 12 712 38 q 511 -14 582 -14 q 479 -7 495 -14 q 446 10 463 0 q 409 34 429 21 q 368 57 390 46 q 321 75 346 68 q 266 82 295 82 q 240 80 255 82 q 211 73 225 78 q 185 64 197 69 q 166 54 172 59 q 113 17 139 36 q 60 -18 86 0 q 42 -25 50 -25 q 23 -19 32 -25 q 8 -5 14 -14 q -2 13 1 2 q -6 34 -6 23 q -3 51 -6 44 q 8 67 0 59 q 57 108 33 87 q 107 149 82 128 q 131 166 120 158 q 155 186 142 174 q 186 216 168 198 q 227 261 203 233 q 285 329 252 289 q 365 424 319 368 q 464 548 411 480 q 596 713 518 616 q 570 710 583 712 q 543 709 557 709 q 483 723 512 709 q 416 744 454 737 q 343 759 379 751 q 276 767 308 767 q 232 756 254 767 q 189 732 210 745 q 152 710 168 719 q 122 701 136 701 q 103 709 110 701 q 95 730 95 717 q 99 748 95 737 q 110 767 102 758 q 156 811 130 790 q 212 848 183 832 q 274 874 242 864 q 336 883 305 883 q 361 881 349 883 q 467 862 424 872 q 543 844 511 852 q 600 830 575 835 q 649 824 624 824 q 703 826 680 824 q 746 831 727 827 q 780 842 765 835 q 810 861 795 849 "},"u":{"x_min":37.984375,"x_max":793.515625,"ha":629,"o":"m 793 162 q 724 95 763 128 q 642 38 684 63 q 559 -1 600 13 q 486 -16 518 -16 q 433 1 453 -16 q 400 43 413 19 q 411 115 400 74 q 373 72 394 89 q 319 33 353 55 q 243 -3 285 10 q 151 -16 201 -16 q 108 -12 129 -16 q 72 4 88 -7 q 47 34 56 15 q 37 83 37 54 q 40 104 37 84 q 57 167 43 124 q 103 278 72 210 q 189 444 133 347 q 222 481 203 470 q 262 493 240 493 q 282 490 271 493 q 301 483 292 488 q 315 470 309 478 q 320 452 320 462 q 318 439 320 445 q 304 409 315 427 q 278 366 293 390 q 246 314 263 342 q 215 257 229 286 q 195 200 201 227 q 187 144 189 173 q 194 122 187 132 q 217 111 201 111 q 297 132 261 111 q 366 188 333 152 q 428 266 400 225 q 474 343 455 308 q 496 392 486 366 q 518 441 506 419 q 544 478 529 463 q 581 493 559 493 q 620 478 606 493 q 634 440 634 462 q 625 407 634 428 q 602 358 616 385 q 572 299 588 330 q 542 236 556 268 q 519 173 528 204 q 510 115 510 142 q 539 91 510 91 q 592 103 560 91 q 657 138 623 115 q 726 189 691 160 q 786 254 760 219 l 793 162 "},"1":{"x_min":-46.125,"x_max":326.90625,"ha":249,"o":"m -37 65 q -2 124 -18 96 q 26 179 12 152 q 53 230 40 205 q 81 282 67 256 l 174 451 q 144 439 165 447 q 100 422 124 431 q 56 404 77 413 q 27 394 35 396 q 22 392 25 392 q 18 392 19 392 q -1 401 7 392 q -9 425 -9 410 q -1 453 -9 438 q 27 486 6 469 q 118 541 73 516 q 158 561 137 551 q 200 578 179 571 q 241 591 221 586 q 278 596 261 596 q 312 585 297 596 q 326 549 326 575 q 325 530 326 541 q 318 508 324 520 q 294 454 308 487 q 262 382 279 421 q 226 300 245 343 q 189 215 208 257 q 153 134 170 172 q 121 67 135 96 q 97 31 111 46 q 68 5 83 15 q 36 -10 52 -5 q 6 -16 20 -16 q -30 -5 -15 -16 q -46 28 -46 6 q -44 46 -46 35 q -37 65 -43 56 "},"k":{"x_min":-12.203125,"x_max":804.375,"ha":651,"o":"m 254 347 q 308 399 280 373 q 369 446 337 425 q 435 480 400 467 q 507 493 470 493 q 554 487 530 493 q 597 471 577 482 q 628 441 616 459 q 640 396 640 423 q 620 318 640 353 q 569 255 600 282 q 498 205 537 227 q 421 169 459 184 q 404 159 412 165 q 390 145 396 152 q 381 131 384 138 q 377 119 377 124 q 382 105 377 111 q 400 99 387 99 q 457 109 425 99 q 532 140 489 120 q 629 193 574 161 q 754 268 683 225 q 776 275 766 275 q 796 265 789 275 q 804 240 804 256 q 790 197 804 221 q 744 151 776 173 q 651 94 698 124 q 553 39 603 64 q 450 -1 503 14 q 341 -16 397 -16 q 245 66 245 -16 q 264 144 245 110 q 309 202 282 177 q 365 245 336 227 q 415 278 394 263 q 446 298 432 287 q 471 320 460 309 q 489 344 482 332 q 495 368 495 356 q 477 387 495 387 q 287 257 409 387 q 236 199 259 227 q 193 143 213 170 q 155 91 173 116 q 119 42 137 65 q 25 -16 66 -16 q -3 -9 5 -16 q -12 16 -12 -2 q -12 22 -12 19 q -11 28 -12 25 q 0 69 -10 42 q 25 132 10 97 q 59 208 40 168 q 96 286 78 248 q 130 358 114 324 q 158 414 147 392 l 372 851 q 384 868 376 860 q 403 883 393 876 q 426 893 414 889 q 450 897 438 897 q 492 885 480 897 q 504 857 504 874 q 497 826 504 843 q 480 796 490 810 q 424 688 452 745 q 368 571 396 630 q 311 455 340 512 q 254 347 283 398 "},"€":{"x_min":52.21875,"x_max":976.640625,"ha":765,"o":"m 976 856 q 970 812 976 838 q 954 758 965 786 q 928 703 943 731 q 893 654 912 676 q 850 618 873 632 q 800 604 827 604 q 785 605 794 604 q 765 610 775 607 q 748 621 755 614 q 741 641 741 629 q 745 660 741 649 q 761 685 750 671 q 788 717 773 699 q 813 756 802 736 q 833 796 825 777 q 841 832 841 816 q 831 863 841 851 q 800 875 822 875 q 747 862 776 875 q 686 826 718 849 q 620 770 653 803 q 553 700 586 738 q 487 620 519 662 q 427 533 455 577 l 778 533 q 792 528 788 533 q 796 516 796 523 q 793 500 796 508 q 783 485 789 493 q 767 474 776 478 q 746 470 757 470 l 389 470 q 374 440 381 455 q 360 411 367 425 l 742 411 q 760 404 754 411 q 766 388 766 398 q 763 374 766 381 q 752 360 759 366 q 735 350 745 354 q 710 347 725 347 l 333 347 q 315 283 322 314 q 309 227 309 252 q 335 147 309 177 q 423 118 362 118 q 486 132 451 118 q 559 168 521 146 q 635 217 596 190 q 708 268 673 244 q 771 313 742 293 q 817 341 799 333 q 826 344 821 344 q 839 327 836 344 q 843 290 843 311 q 840 262 843 278 q 821 223 837 245 q 793 193 813 215 q 742 146 773 172 q 672 91 712 120 q 587 39 633 63 q 491 0 541 15 q 386 -14 440 -14 q 278 0 323 -14 q 205 42 233 15 q 163 107 177 69 q 150 189 150 145 q 157 265 150 226 q 178 347 164 305 l 74 347 q 57 353 63 347 q 52 369 52 360 q 55 383 52 376 q 65 397 59 391 q 82 407 72 403 q 106 411 92 411 l 202 411 q 215 440 208 425 q 229 470 221 455 l 110 470 q 91 475 97 470 q 86 489 86 481 q 90 504 86 496 q 101 518 94 512 q 119 529 108 524 q 142 533 129 533 l 264 533 q 339 646 298 591 q 427 751 381 701 q 525 842 474 800 q 628 914 575 884 q 732 961 680 944 q 835 978 784 978 q 889 972 864 978 q 934 951 915 965 q 965 913 954 937 q 976 856 976 890 "},"<":{"x_min":-107.84375,"x_max":694.5,"ha":379,"o":"m 418 124 q 166 268 292 196 q -85 413 40 341 q -107 451 -107 425 q -93 489 -107 470 q -49 519 -79 507 q 301 663 126 591 q 652 808 476 735 q 667 811 661 811 q 687 802 680 811 q 694 779 694 793 q 689 755 694 768 q 674 730 685 743 q 648 706 664 718 q 609 683 632 693 q 336 575 472 628 q 63 466 200 521 q 261 357 162 411 q 460 247 360 302 q 488 223 480 236 q 497 196 497 210 q 490 168 497 182 q 474 144 484 155 q 453 127 464 134 q 431 121 441 121 q 418 124 422 121 "},"t":{"x_min":29.84375,"x_max":613.109375,"ha":358,"o":"m 273 377 q 225 281 248 328 q 183 196 203 235 q 167 158 175 179 q 160 120 160 137 q 164 105 160 111 q 179 100 168 100 q 215 108 193 100 q 261 131 236 117 q 314 163 286 145 q 369 200 342 181 q 420 239 396 219 q 463 274 444 258 q 484 282 474 282 q 503 271 495 282 q 510 246 510 261 q 503 214 510 230 q 476 182 495 198 q 386 106 432 142 q 297 43 341 70 q 209 0 252 15 q 125 -16 166 -16 q 80 -9 98 -16 q 50 9 61 -2 q 34 38 39 22 q 29 74 29 55 q 41 145 29 108 q 67 210 52 181 q 107 294 87 252 q 146 373 127 335 l 117 373 q 65 385 79 373 q 50 413 50 398 q 55 430 50 420 q 68 448 59 440 q 88 463 76 457 q 116 469 101 469 l 189 469 l 333 753 q 366 790 346 779 q 408 801 386 801 q 445 790 428 801 q 462 754 462 779 q 456 728 462 741 q 441 697 451 715 q 426 670 435 686 q 407 636 417 654 q 387 598 398 618 q 366 560 377 579 q 318 469 343 517 l 539 469 q 569 467 555 469 q 592 460 582 465 q 607 446 602 455 q 613 423 613 438 q 610 408 613 415 q 601 394 608 400 q 584 384 595 388 q 555 379 573 380 l 273 377 "},"W":{"x_min":-65.109375,"x_max":917.640625,"ha":756,"o":"m 914 841 q 730 363 881 659 q 656 215 689 279 q 594 108 623 151 q 534 44 564 65 q 467 22 503 22 q 424 34 442 22 q 394 81 406 46 q 368 163 381 116 q 348 312 355 210 l 205 123 q 167 72 185 93 q 131 39 149 52 q 96 21 114 27 q 57 16 78 16 q 9 33 28 16 q -10 82 -10 50 q -9 188 -10 130 q -6 318 -9 246 q 1 476 -4 389 q 18 668 7 562 q -21 628 -5 640 q -48 616 -37 616 q -61 623 -56 616 q -65 644 -65 631 q -53 701 -65 666 q -20 775 -42 735 q 33 853 1 814 q 107 923 65 892 q 126 928 115 928 q 149 919 138 928 q 169 896 160 910 q 182 864 177 882 q 187 830 187 847 q 185 803 187 813 q 179 776 182 788 q 172 748 176 765 q 165 706 169 732 q 155 636 161 680 q 145 524 149 580 q 139 410 141 467 q 138 309 136 353 q 137 205 139 265 q 171 252 151 223 q 208 299 191 281 q 245 349 225 317 q 282 408 265 382 q 308 451 299 434 l 318 467 q 368 593 343 531 q 419 716 394 655 q 471 808 444 775 q 530 841 498 841 q 571 831 556 841 q 587 808 587 822 q 575 752 587 784 q 548 683 563 720 q 517 608 532 647 q 494 534 501 569 q 489 434 491 475 q 486 358 486 392 q 491 280 486 315 q 501 203 496 246 q 554 276 529 242 q 609 358 579 309 q 665 458 638 407 q 715 560 692 510 q 755 660 738 611 q 781 754 772 710 l 790 805 q 790 811 790 808 q 791 816 791 813 q 800 853 795 836 q 812 880 805 869 q 832 897 820 891 q 862 904 844 904 q 904 897 891 904 q 917 870 917 891 q 916 857 917 864 q 914 841 915 850 "},"v":{"x_min":51.546875,"x_max":704.671875,"ha":543,"o":"m 657 151 q 556 91 607 113 q 443 69 505 69 q 404 76 423 69 q 354 103 385 84 q 264 13 309 44 q 170 -16 219 -16 q 125 -8 147 -16 q 87 16 103 0 q 61 59 71 33 q 51 117 51 84 q 60 205 51 158 q 82 297 69 252 q 108 379 95 341 q 128 440 120 417 q 162 481 141 468 q 202 493 183 493 q 220 490 211 493 q 237 482 229 487 q 249 469 244 476 q 254 453 254 461 q 251 440 254 445 q 227 369 241 407 q 201 292 213 330 q 184 226 189 253 q 180 169 180 200 q 181 157 180 164 q 185 142 183 149 q 190 129 187 134 q 198 124 193 124 q 237 144 215 124 q 276 178 259 164 q 319 234 299 202 q 357 300 339 266 q 391 367 375 334 q 424 426 408 400 q 455 468 440 452 q 487 484 471 484 q 526 466 515 484 q 538 423 538 448 q 529 370 538 394 q 504 321 520 347 q 467 265 489 296 q 421 191 446 234 q 455 177 432 177 q 505 183 479 177 q 557 201 531 189 q 608 228 583 212 q 657 263 634 244 q 676 269 668 269 q 696 258 689 269 q 704 230 704 247 q 693 190 704 212 q 657 151 682 169 "},">":{"x_min":-215,"x_max":592.765625,"ha":489,"o":"m 528 413 q 181 269 354 341 q -164 124 9 197 q -176 122 -170 122 q -203 133 -192 122 q -215 162 -215 145 q -195 206 -215 183 q -126 247 -175 230 q 143 357 9 302 q 414 466 278 411 q 212 576 312 521 q 10 686 111 631 q -12 708 -5 695 q -19 737 -19 721 q -15 763 -19 750 q -3 787 -10 776 q 14 804 4 797 q 36 810 24 810 q 48 808 42 810 l 561 519 q 584 499 576 510 q 592 478 592 489 q 577 445 592 461 q 528 413 561 429 "},"s":{"x_min":-17.640625,"x_max":441.515625,"ha":414,"o":"m 265 381 q 339 332 307 360 q 395 273 372 304 q 429 210 417 242 q 441 148 441 179 q 419 79 441 109 q 361 26 397 48 q 280 -5 326 5 q 187 -16 234 -16 q 119 -9 152 -16 q 58 14 86 -1 q 11 56 31 31 q -16 117 -8 82 q -17 126 -17 122 q -4 157 -17 144 q 23 170 8 170 q 40 168 31 170 q 54 155 49 165 q 79 126 63 139 q 114 104 94 113 q 156 90 134 95 q 199 85 178 85 q 241 89 221 85 q 276 102 261 93 q 300 124 291 111 q 309 158 309 138 q 293 221 309 192 q 253 275 278 250 q 197 321 228 300 q 134 362 165 343 q 124 374 130 364 q 117 394 117 384 q 121 407 117 402 q 146 436 132 421 q 177 464 160 451 q 212 484 193 476 q 251 492 231 492 q 279 488 266 492 q 301 477 292 484 q 315 463 309 471 q 320 448 320 455 q 315 430 320 439 q 302 413 310 421 q 285 397 295 405 q 265 381 275 389 "},"B":{"x_min":61.71875,"x_max":982.0625,"ha":877,"o":"m 592 626 q 698 676 653 651 q 774 728 744 702 q 820 777 805 753 q 836 820 836 800 q 829 836 836 827 q 808 852 822 845 q 773 865 794 859 q 725 870 752 870 q 586 852 650 870 q 470 808 522 834 q 378 754 418 782 q 311 705 338 726 q 281 679 294 692 q 257 657 269 667 q 231 641 245 647 q 199 635 218 635 q 154 649 170 635 q 139 687 139 662 q 162 749 139 716 q 225 814 185 781 q 321 876 266 847 q 439 928 376 906 q 572 964 503 950 q 710 978 640 978 q 832 966 781 978 q 917 934 884 954 q 966 886 950 914 q 982 826 982 858 q 960 758 982 793 q 898 687 938 722 q 799 620 857 652 q 669 561 741 588 q 786 511 741 537 q 856 457 831 485 q 891 399 882 429 q 900 337 900 368 q 874 244 900 290 q 802 159 848 199 q 694 84 756 118 q 557 25 631 50 q 401 -13 483 0 q 235 -27 319 -27 q 174 -23 205 -27 q 119 -11 144 -20 q 77 12 93 -2 q 61 50 61 27 q 62 55 61 53 q 63 61 62 58 q 69 74 65 67 q 84 90 72 82 q 123 102 96 97 q 198 107 149 107 q 338 375 282 263 q 430 560 393 487 q 493 667 467 632 q 543 701 518 701 q 564 698 554 701 q 582 689 574 695 q 594 675 590 683 q 599 656 599 666 q 593 642 594 649 q 592 626 592 635 m 555 497 q 498 373 524 427 q 447 272 471 318 q 402 186 423 226 q 360 109 381 147 q 507 136 439 115 q 626 187 575 157 q 705 256 676 218 q 734 336 734 294 q 726 376 734 355 q 697 418 717 397 q 642 459 676 439 q 555 497 607 480 "},"?":{"x_min":-135.640625,"x_max":434.0625,"ha":333,"o":"m 45 178 q 27 138 40 157 q 0 104 15 119 q -36 81 -16 90 q -75 73 -56 73 q -120 89 -104 73 q -135 132 -135 106 q -124 177 -135 155 q -95 217 -113 200 q -54 245 -77 235 q -9 256 -31 256 q 33 240 18 256 q 48 201 48 225 q 45 178 48 189 m 195 434 q 142 392 167 414 q 97 348 118 370 q 62 304 77 326 q 40 264 48 283 q 19 247 34 252 q -7 242 4 242 q -31 248 -21 242 q -41 267 -41 255 q -40 274 -41 269 q 17 376 -26 325 q 123 474 61 427 q 179 512 149 491 q 235 555 209 533 q 280 599 261 577 q 304 638 299 620 q 307 663 307 653 q 296 693 307 684 q 265 703 284 703 q 218 694 245 703 q 163 670 191 686 q 108 632 135 654 q 61 583 82 610 q 25 563 46 563 q 7 565 16 563 q -8 572 -1 568 q -19 583 -14 577 q -23 597 -23 590 q -18 616 -23 607 q -4 636 -13 625 q 69 708 28 676 q 152 761 109 739 q 237 794 195 783 q 316 805 279 805 q 363 799 341 805 q 400 781 385 793 q 425 750 416 769 q 434 706 434 731 q 420 633 434 665 q 378 570 407 600 q 304 507 349 539 q 195 434 259 474 "},"H":{"x_min":-102.40625,"x_max":1060.734375,"ha":840,"o":"m 794 274 q 789 274 791 274 q 784 274 786 274 q 725 143 750 199 q 686 61 699 86 q 660 25 674 40 q 629 -1 645 9 q 596 -16 613 -11 q 565 -21 579 -21 q 530 -11 544 -21 q 516 18 516 -1 q 526 60 516 36 l 624 267 q 482 262 550 264 q 351 259 414 260 q 282 136 319 193 q 205 36 246 79 q 120 -30 164 -6 q 29 -55 76 -55 q -38 -36 -7 -55 q -59 -21 -48 -32 q -80 5 -70 -10 q -95 39 -89 21 q -102 76 -102 57 q -97 102 -102 90 q -84 126 -92 115 q -74 139 -80 131 q -61 153 -69 146 q -45 165 -54 160 q -27 170 -37 170 q -14 171 -23 170 q -3 169 -6 172 q 9 151 3 165 q 24 121 16 137 q 41 94 31 106 q 63 82 50 82 q 100 95 82 82 q 138 134 119 109 q 173 191 158 159 q 208 265 189 224 q 184 298 187 271 q 182 339 182 325 q 188 355 182 347 q 205 369 194 363 q 230 381 216 376 q 263 386 245 385 q 303 496 287 446 q 339 608 319 546 q 377 726 360 670 q 406 828 394 783 q 427 902 419 872 q 438 938 436 931 q 458 969 443 959 q 491 978 474 978 q 532 961 518 978 q 545 898 545 944 q 545 887 545 893 q 545 874 545 881 q 538 827 543 857 q 524 757 533 796 q 502 671 515 718 q 480 587 489 623 q 451 495 470 550 q 409 387 432 441 q 455 387 430 387 q 512 387 480 387 q 583 386 543 387 q 675 383 623 385 q 676 383 676 383 q 678 383 677 383 q 785 605 737 508 q 876 785 832 701 q 956 916 921 868 q 1013 964 990 964 q 1048 953 1037 964 q 1060 923 1060 942 q 1058 905 1060 912 q 1051 887 1056 897 q 1007 782 1034 845 q 948 648 980 720 q 888 512 916 575 q 828 376 860 448 q 862 365 849 372 q 875 346 875 358 q 853 304 875 331 q 794 274 831 276 "},"c":{"x_min":25.09375,"x_max":583.265625,"ha":437,"o":"m 453 430 q 448 384 453 409 q 433 336 444 358 q 405 299 422 314 q 363 284 388 284 q 346 288 349 284 q 342 302 342 292 q 342 320 342 308 q 343 343 343 332 q 339 363 343 355 q 322 372 336 372 q 287 360 307 372 q 249 329 268 348 q 211 286 229 310 q 178 237 193 262 q 155 189 164 212 q 147 150 147 166 q 163 113 147 126 q 208 99 180 99 q 274 109 239 99 q 342 135 308 120 q 408 169 377 151 q 466 204 440 187 q 510 232 493 221 q 533 247 528 244 q 554 252 544 252 q 568 249 562 252 q 577 240 573 245 q 581 229 580 235 q 583 219 583 223 q 581 205 583 213 q 571 185 580 196 q 549 165 568 181 q 501 126 531 148 q 433 78 472 103 q 351 31 395 52 q 261 -3 307 10 q 168 -16 214 -16 q 107 -6 134 -16 q 62 23 80 4 q 34 67 44 42 q 25 120 25 92 q 39 190 25 150 q 78 271 53 229 q 137 352 103 312 q 211 423 171 392 q 294 474 250 455 q 381 493 337 493 q 409 489 396 493 q 432 479 422 486 q 447 459 442 472 q 453 430 453 447 "},"&":{"x_min":-40.6875,"x_max":597.515625,"ha":531,"o":"m 166 244 q 83 140 83 176 q 99 112 83 120 q 134 105 114 105 q 204 122 168 105 q 241 145 215 128 q 307 191 267 162 l 225 299 q 166 244 197 270 m 497 474 q 475 462 486 465 q 453 458 464 458 q 430 462 441 458 q 410 474 419 467 q 397 490 402 481 q 392 508 392 499 q 403 530 392 516 q 426 559 414 543 q 450 593 439 575 q 461 628 461 611 q 446 661 461 649 q 411 674 432 674 q 352 659 383 674 q 294 620 320 644 q 249 569 267 597 q 231 513 231 540 q 271 415 231 464 l 385 275 q 415 316 402 295 q 438 353 428 337 l 556 353 q 511 266 537 309 q 448 180 484 223 q 469 149 459 163 q 489 119 478 134 q 511 86 499 104 q 541 46 524 69 q 550 30 547 38 q 552 15 552 22 q 537 -21 552 -6 q 500 -36 522 -36 q 469 -27 485 -36 q 438 1 453 -18 l 368 96 q 257 20 293 40 q 128 -18 187 -18 q 62 -8 93 -18 q 8 21 31 2 q -27 68 -14 40 q -40 130 -40 96 q -23 189 -40 155 q 21 257 -6 223 q 82 322 48 291 q 147 375 115 354 q 156 383 156 380 q 123 453 133 419 q 112 520 112 487 q 126 589 112 556 q 163 651 139 622 q 218 702 187 679 q 285 742 250 726 q 358 768 320 759 q 431 777 395 777 q 524 756 482 777 q 588 689 567 735 q 597 649 597 671 q 587 600 597 625 q 562 553 577 576 q 530 510 547 531 q 497 474 512 490 "},"I":{"x_min":-56.96875,"x_max":817.9375,"ha":543,"o":"m 297 5 q 217 11 252 10 q 151 13 182 13 q 112 12 131 13 q 73 11 92 12 q 33 10 54 11 q -10 10 12 10 q -44 23 -32 10 q -56 54 -56 35 q -52 80 -56 62 q -36 94 -50 86 q 0 109 -22 102 q 53 122 23 116 q 118 130 84 127 q 189 275 151 197 q 266 428 227 354 q 341 570 305 502 q 410 694 378 638 q 462 790 442 750 q 499 853 483 831 q 437 837 465 845 q 368 822 409 830 q 352 819 360 819 q 322 833 333 819 q 311 866 311 847 q 327 887 311 875 q 371 911 343 899 q 437 936 399 924 q 521 957 476 948 q 616 972 566 967 q 716 978 666 978 q 791 968 764 978 q 817 935 817 959 q 811 911 817 923 q 793 890 804 900 q 766 875 781 881 q 733 869 750 869 q 716 870 724 869 q 698 871 708 871 q 656 870 673 871 q 620 867 640 868 q 621 857 621 860 q 619 841 621 847 q 613 826 616 834 q 554 716 588 777 q 486 585 520 655 q 418 444 453 516 q 352 308 383 372 q 295 194 320 244 q 257 119 270 145 q 327 110 295 115 q 382 95 359 104 q 417 75 404 87 q 430 50 430 64 q 423 30 430 40 q 406 12 417 20 q 381 0 395 4 q 354 -4 368 -4 q 324 0 338 -4 q 297 5 310 4 "},"G":{"x_min":-78.671875,"x_max":803.6875,"ha":658,"o":"m 611 295 q 601 273 609 291 q 584 228 594 255 q 562 167 574 201 q 538 99 550 134 q 514 30 525 64 q 493 -29 502 -2 q 478 -75 484 -56 q 470 -96 472 -93 q 459 -121 467 -107 q 442 -146 452 -134 q 419 -165 432 -158 q 394 -173 407 -173 q 363 -161 373 -173 q 353 -116 353 -149 q 353 -107 353 -111 q 354 -96 353 -102 q 364 -56 354 -86 q 386 11 373 -26 q 403 72 400 48 q 418 128 406 96 q 352 77 382 94 q 278 33 322 60 q 189 -10 234 6 q 103 -27 145 -27 q 22 -9 56 -27 q -34 36 -12 8 q -67 101 -56 65 q -78 172 -78 137 q -78 181 -78 177 q -78 189 -78 185 q -55 323 -73 255 q -8 459 -37 392 q 58 592 20 527 q 142 714 96 657 q 238 820 187 772 q 342 904 288 869 q 450 959 396 939 q 558 978 505 978 q 678 950 620 978 q 786 857 735 921 q 800 829 797 843 q 803 801 803 814 q 791 752 803 771 q 746 722 778 733 q 686 728 711 723 q 638 769 661 733 q 591 816 617 801 q 534 830 564 830 q 433 797 486 830 q 338 730 379 764 q 249 626 297 696 q 163 482 200 556 q 112 353 126 408 q 98 241 98 298 q 101 202 98 222 q 112 166 104 182 q 135 139 121 149 q 172 128 150 128 q 229 143 198 128 q 296 180 261 157 q 356 216 330 203 q 413 259 383 229 q 465 316 442 288 q 500 364 489 343 l 563 523 q 593 560 575 549 q 632 571 612 571 q 651 568 641 571 q 668 559 660 565 q 679 544 675 554 q 684 523 684 535 q 677 462 684 491 q 660 406 670 434 q 636 352 649 379 q 611 295 623 324 "},"(":{"x_min":-6.109375,"x_max":491.03125,"ha":198,"o":"m 354 1041 q 398 1080 377 1069 q 436 1091 419 1091 q 458 1087 448 1091 q 475 1077 468 1083 q 486 1064 482 1071 q 491 1051 491 1057 q 486 1041 491 1045 q 330 833 399 940 q 212 615 261 727 q 139 386 164 503 q 113 146 113 269 q 114 80 113 108 q 117 26 115 51 q 125 -23 120 1 q 138 -78 130 -48 q 139 -86 139 -80 q 134 -104 139 -96 q 121 -119 129 -113 q 103 -129 113 -126 q 82 -132 93 -132 q 46 -120 64 -132 q 21 -78 28 -108 q 10 -20 15 -51 q 1 43 5 10 q -4 110 -2 76 q -6 174 -6 143 q 15 390 -6 283 q 82 604 37 497 q 194 819 126 711 q 354 1041 262 928 "},"`":{"x_min":256.375,"x_max":430.671875,"ha":708,"o":"m 427 638 q 429 622 429 630 q 430 608 430 615 q 420 571 430 583 q 396 560 410 560 q 368 571 383 560 q 344 606 354 583 q 304 691 324 649 q 264 775 284 733 q 256 811 256 794 q 262 841 256 827 q 278 865 268 855 q 300 880 288 874 q 326 886 313 886 q 367 868 347 886 q 397 808 387 851 q 412 723 404 765 q 427 638 420 681 "},"U":{"x_min":-35.953125,"x_max":753.5,"ha":665,"o":"m 193 918 q 233 966 211 954 q 276 978 255 978 q 298 976 288 978 q 317 968 309 973 q 330 952 325 962 q 335 928 335 942 q 327 887 335 910 q 303 832 320 864 q 189 579 235 712 q 139 358 143 446 q 136 325 137 341 q 135 295 135 309 q 145 227 135 255 q 172 183 155 200 q 209 158 189 166 q 250 151 229 151 q 397 206 326 151 q 511 339 467 261 q 589 559 554 417 q 629 874 623 700 q 636 906 630 892 q 651 929 642 920 q 673 942 661 937 q 699 946 686 946 q 726 934 715 946 q 742 903 736 923 q 751 857 748 883 q 753 803 753 831 q 731 575 753 682 q 670 376 709 467 q 579 212 632 285 q 465 88 526 139 q 336 9 403 37 q 200 -17 268 -17 q 116 0 158 -17 q 40 51 73 17 q -14 134 6 85 q -35 245 -35 183 q -35 269 -35 257 q -32 295 -34 282 q -13 394 -23 347 q 10 487 -2 441 q 41 579 24 533 q 80 678 58 626 q 130 789 102 730 q 193 918 158 848 "},"F":{"x_min":-59.6875,"x_max":836.25,"ha":621,"o":"m 699 560 q 684 529 691 540 q 668 511 676 517 q 648 502 659 504 q 621 500 636 500 q 512 508 558 505 q 431 511 466 511 q 370 508 396 511 q 319 499 344 505 q 288 447 309 482 q 243 367 268 412 q 193 271 219 322 q 145 173 167 220 q 62 21 99 71 q 0 -28 25 -28 q -45 -17 -31 -28 q -59 15 -59 -6 q -41 87 -59 41 q 10 200 -22 134 q 37 252 23 225 q 67 308 52 280 q 96 362 82 336 q 122 410 110 389 q 141 446 133 432 q 151 466 149 461 q 154 474 153 472 q 155 477 155 476 q 155 478 155 478 q 156 481 155 478 l 144 481 q 103 485 118 481 q 87 503 87 489 q 93 522 87 510 q 125 562 107 548 q 159 582 143 576 q 191 594 176 588 q 215 600 207 600 q 249 669 233 638 q 284 738 266 701 q 355 853 319 807 q 432 927 390 899 q 525 966 474 954 q 641 978 576 978 q 736 975 701 978 q 786 968 772 971 q 825 943 813 961 q 836 903 836 925 q 830 869 836 886 q 814 838 824 852 q 792 815 805 824 q 767 807 779 807 q 754 809 759 807 q 727 821 739 816 q 703 829 715 826 q 675 834 691 832 q 638 835 660 835 q 583 834 615 835 q 506 831 552 833 q 472 772 488 799 q 441 717 456 744 q 414 669 425 691 q 385 617 402 647 q 435 623 411 620 q 490 631 459 626 q 552 638 520 636 q 611 641 583 641 q 686 633 663 641 q 708 600 708 625 q 708 584 708 594 q 699 560 707 573 "},"r":{"x_min":0,"x_max":746.71875,"ha":572,"o":"m 307 395 q 362 425 334 411 q 417 448 390 438 q 467 464 443 458 q 510 470 491 470 q 557 455 541 470 q 574 406 574 440 q 573 390 574 398 q 571 372 573 381 q 550 330 567 354 q 511 281 533 307 q 462 229 488 255 q 414 181 436 203 q 377 143 392 159 q 362 120 362 126 q 363 113 362 115 q 369 111 364 111 q 451 148 406 126 q 541 193 496 170 q 626 239 585 217 q 693 277 666 261 q 706 283 699 280 q 718 285 712 285 q 738 277 730 285 q 746 255 746 269 q 733 220 746 240 q 689 178 720 200 q 635 144 665 163 q 574 106 606 126 q 509 67 541 86 q 445 33 476 48 q 388 9 415 18 q 341 0 361 0 q 271 22 295 0 q 248 80 248 44 q 248 88 248 85 q 266 145 253 118 q 295 198 279 173 q 329 246 311 223 q 361 289 347 269 q 385 326 376 309 q 395 357 395 343 q 394 364 395 360 q 387 367 392 367 q 361 361 379 367 q 321 345 342 355 q 281 321 300 335 q 254 293 262 308 q 229 245 243 274 q 199 184 215 216 q 170 121 184 152 q 145 67 155 90 q 124 32 137 48 q 95 6 111 16 q 63 -10 80 -4 q 33 -16 47 -16 q 9 -8 18 -16 q 0 17 0 0 q 2 36 0 25 q 12 61 4 47 q 36 111 24 84 q 65 173 49 138 q 103 253 82 208 q 153 357 124 298 q 138 377 144 365 q 131 406 131 389 q 138 435 131 423 q 156 454 145 446 q 183 465 168 461 q 215 469 198 469 q 250 466 233 469 q 282 457 268 463 q 305 442 296 451 q 314 421 314 433 q 312 416 314 419 q 309 408 311 413 q 306 401 307 404 q 305 396 305 398 q 305 394 305 394 l 306 394 l 307 395 "},":":{"x_min":214.3125,"x_max":551.390625,"ha":553,"o":"m 392 94 q 378 54 388 73 q 352 20 367 35 q 318 -2 337 6 q 279 -10 299 -10 q 231 8 249 -10 q 214 55 214 27 q 224 99 214 78 q 250 136 234 120 q 288 162 267 152 q 331 172 309 172 q 378 155 362 172 q 394 111 394 139 q 393 102 394 107 q 392 94 393 98 m 550 388 q 535 350 546 368 q 509 318 524 332 q 474 297 493 305 q 434 288 455 288 q 387 306 404 288 q 369 352 369 324 q 380 396 369 375 q 407 433 390 417 q 445 459 423 449 q 489 469 466 469 q 534 452 518 469 q 551 406 551 435 q 551 397 551 402 q 550 388 550 393 "},"x":{"x_min":-76.640625,"x_max":623.96875,"ha":490,"o":"m 220 485 q 249 482 237 485 q 269 471 261 480 q 282 446 278 461 q 286 406 286 431 l 286 328 l 436 455 q 505 483 471 483 q 539 474 526 483 q 553 448 553 464 q 546 428 553 439 q 527 406 540 417 l 302 217 l 310 124 q 334 91 310 91 q 398 110 360 91 q 488 166 437 130 l 566 223 q 591 231 578 231 q 614 221 605 231 q 623 196 623 211 q 611 156 623 179 q 566 111 598 134 q 477 51 515 75 q 407 11 438 27 q 348 -10 375 -3 q 295 -16 322 -16 q 203 17 233 -16 q 173 129 173 52 l 25 2 q 0 -12 12 -8 q -25 -16 -13 -16 q -61 -5 -46 -16 q -76 23 -76 6 q -52 60 -76 42 l 156 242 l 156 406 q 166 453 156 437 q 187 477 175 470 q 208 484 198 484 q 220 485 219 485 "},"*":{"x_min":-71.21875,"x_max":414.390625,"ha":131,"o":"m 404 520 l 210 481 l 265 343 l 163 295 l 135 451 l -22 295 l -71 364 l 103 490 l -48 537 l 28 632 l 156 556 l 223 734 l 328 734 l 222 548 l 414 615 l 404 520 "},"V":{"x_min":-15.59375,"x_max":655.84375,"ha":596,"o":"m 655 851 q 641 808 653 838 q 611 737 630 778 q 567 647 592 696 q 514 544 542 597 q 455 437 485 491 q 394 333 424 383 q 295 179 343 248 q 208 63 247 110 q 213 43 213 53 q 200 15 213 27 q 165 -4 187 3 q 117 -17 144 -12 q 61 -21 90 -21 q 28 -11 40 -21 q 17 13 17 -2 q 26 44 17 32 q 48 62 35 56 q 42 105 46 76 q 31 170 37 133 q 20 251 26 208 q 8 339 14 295 q -1 425 3 383 q -8 502 -6 467 q -13 594 -11 551 q -15 676 -15 638 q -13 744 -15 713 q -8 798 -11 775 q 8 846 -4 823 q 38 886 21 868 q 75 915 55 904 q 115 925 96 925 q 147 907 138 925 q 156 854 156 888 q 153 805 156 832 q 145 753 149 777 q 139 711 141 727 l 135 695 q 132 667 133 683 q 132 629 132 650 q 135 529 132 585 q 143 439 139 473 q 159 356 148 404 q 187 263 170 307 q 270 370 234 324 q 355 499 306 416 q 423 639 389 567 q 491 779 457 711 q 605 894 554 894 q 641 887 627 894 q 655 861 655 881 q 655 851 655 855 "},"μ":{"x_min":-143.109375,"x_max":793.515625,"ha":629,"o":"m 793 162 q 724 95 763 128 q 642 38 684 63 q 559 -1 600 13 q 486 -16 518 -16 q 433 1 453 -16 q 413 63 413 19 q 423 136 413 94 q 379 82 406 109 q 319 33 353 55 q 243 -3 285 10 q 151 -16 201 -16 q 118 -14 134 -16 q 88 -5 102 -11 l -10 -251 q -22 -268 -14 -260 q -40 -283 -30 -276 q -62 -293 -50 -289 q -86 -297 -74 -297 q -130 -284 -118 -297 q -143 -255 -143 -272 q -136 -225 -143 -241 q -121 -196 -129 -209 q -50 -56 -80 -116 q 1 49 -20 3 q 37 129 22 94 q 65 192 52 164 q 89 247 78 221 q 114 302 100 274 q 145 365 128 331 q 189 444 163 399 q 222 481 203 470 q 262 493 240 493 q 282 490 271 493 q 301 483 292 488 q 315 470 309 478 q 320 452 320 462 q 318 439 320 445 q 304 409 315 427 q 278 366 293 390 q 246 314 263 342 q 215 257 229 286 q 191 196 201 227 q 179 136 181 165 q 186 113 179 124 q 208 103 193 103 q 292 128 252 103 q 366 188 333 152 q 428 266 400 225 q 474 343 455 308 q 496 392 486 366 q 518 441 506 419 q 544 478 529 463 q 581 493 559 493 q 620 478 606 493 q 634 440 634 462 q 625 407 634 428 q 602 358 616 385 q 572 299 588 330 q 542 236 556 268 q 519 173 528 204 q 510 115 510 142 q 539 91 510 91 q 592 103 560 91 q 657 138 623 115 q 726 189 691 160 q 786 254 760 219 l 793 162 "},"h":{"x_min":-16.953125,"x_max":759.609375,"ha":609,"o":"m 6 107 q 43 184 22 141 q 85 268 64 226 q 126 347 107 309 q 158 411 145 385 l 381 851 q 394 868 385 860 q 413 883 402 876 q 436 893 424 889 q 461 897 448 897 q 502 886 491 897 q 514 858 514 874 q 506 827 514 843 q 489 796 499 810 q 432 693 459 745 q 377 589 404 641 q 322 484 349 536 q 263 381 294 432 q 304 419 282 400 q 350 455 325 439 q 405 482 375 472 q 472 493 435 493 q 513 488 493 493 q 548 475 533 484 q 571 450 562 466 q 580 411 580 434 q 571 355 580 381 q 548 307 562 330 q 516 264 533 284 q 484 222 499 243 q 458 177 469 200 q 444 127 446 154 q 443 124 444 126 q 443 122 443 123 q 452 105 443 108 q 476 101 461 101 q 515 108 494 101 q 557 127 536 115 q 600 154 579 139 q 641 185 621 169 q 676 215 660 200 q 704 240 693 229 q 717 248 710 246 q 730 251 724 251 q 751 242 742 251 q 759 217 759 233 q 749 185 759 203 q 716 148 739 166 q 640 86 678 115 q 562 33 601 56 q 483 -3 522 10 q 407 -16 444 -16 q 330 5 359 -16 q 301 74 301 27 q 313 140 301 109 q 342 199 324 170 q 379 255 359 228 q 413 307 398 282 q 426 329 421 319 q 430 350 430 339 q 425 367 430 360 q 408 373 419 373 q 334 354 368 373 q 271 303 300 334 q 219 237 243 273 q 173 167 194 200 q 154 133 164 152 q 133 93 144 113 q 111 53 123 73 q 87 17 100 33 q 61 -7 75 2 q 32 -16 47 -16 q -4 -3 8 -16 q -16 31 -16 10 q -11 64 -16 47 q 6 107 -6 82 "},"0":{"x_min":-30.515625,"x_max":514.09375,"ha":473,"o":"m 386 407 q 368 476 386 455 q 323 497 351 497 q 238 473 279 497 q 165 407 197 448 q 114 313 133 366 q 94 204 94 260 q 98 162 94 183 q 110 124 101 141 q 133 96 118 107 q 170 86 147 86 q 236 102 206 86 q 289 145 265 118 q 331 205 314 171 q 362 275 349 239 q 380 345 374 310 q 386 407 386 379 m 514 407 q 502 315 514 363 q 467 219 490 267 q 413 129 445 172 q 341 54 381 86 q 253 2 301 21 q 151 -16 205 -16 q 76 -1 109 -16 q 18 42 42 14 q -17 110 -4 70 q -30 199 -30 150 q -18 289 -30 242 q 16 382 -6 337 q 71 470 39 428 q 143 544 103 512 q 230 594 183 575 q 330 613 278 613 q 404 598 370 613 q 463 556 438 583 q 500 491 487 529 q 514 407 514 453 "},".":{"x_min":218.390625,"x_max":393.375,"ha":496,"o":"m 393 94 q 385 54 393 73 q 364 20 377 35 q 333 -2 351 6 q 296 -10 316 -10 q 265 -4 280 -10 q 241 12 251 2 q 224 38 230 23 q 218 69 218 52 q 226 108 218 89 q 247 141 233 126 q 279 163 261 155 q 318 172 297 172 q 372 149 352 172 q 393 94 393 127 "},"@":{"x_min":-67.09375,"x_max":1149.59375,"ha":1054,"o":"m 676 683 q 560 662 619 683 q 448 602 501 640 q 356 509 396 563 q 295 388 315 454 q 396 223 243 223 q 509 249 454 223 q 615 328 564 274 q 710 467 666 383 q 791 669 754 551 l 781 671 q 753 676 770 674 q 716 681 737 678 q 676 683 695 683 m 372 -105 q 128 -65 223 -105 q -14 43 33 -25 q -66 201 -61 111 q -40 392 -71 291 q 37 569 -10 488 q 146 717 86 651 q 277 833 206 783 q 423 918 348 884 q 574 970 497 952 q 722 987 650 987 q 861 974 796 987 q 980 936 927 962 q 1071 871 1032 910 q 1130 779 1110 832 q 1149 660 1150 727 q 1123 512 1148 593 q 1069 383 1101 440 q 1001 285 1038 327 q 924 214 963 243 q 845 168 884 185 q 771 142 807 150 q 707 134 735 134 q 672 141 683 134 q 657 158 661 147 q 656 183 653 169 q 664 214 659 198 l 713 371 q 659 289 693 331 q 580 213 625 248 q 478 157 535 179 q 357 134 422 134 q 259 153 299 134 q 198 206 219 172 q 175 290 177 241 q 193 400 174 339 q 233 488 206 444 q 297 573 260 532 q 379 648 334 613 q 475 709 425 683 q 581 750 526 735 q 691 765 636 765 q 721 763 701 765 q 762 759 740 762 q 805 754 784 757 q 842 748 827 751 q 870 737 862 745 q 883 719 879 730 q 888 696 887 709 q 891 669 889 683 l 750 215 q 829 231 792 215 q 900 284 866 248 q 962 377 933 320 q 1015 514 990 434 q 1039 646 1039 589 q 1021 746 1039 704 q 970 816 1003 788 q 893 861 936 844 q 800 886 850 878 q 697 893 750 893 q 498 859 595 893 q 317 760 400 825 q 169 603 233 696 q 67 392 104 510 q 45 223 38 298 q 94 96 52 148 q 215 16 137 44 q 408 -10 293 -10 q 517 -3 467 -10 q 607 15 567 4 q 678 39 647 26 q 729 63 709 52 q 759 82 748 74 l 769 90 l 812 28 q 726 -26 775 -2 q 621 -68 678 -51 q 501 -95 564 -86 q 372 -105 438 -105 "},"f":{"x_min":-90.203125,"x_max":675.515625,"ha":343,"o":"m 539 385 q 472 383 503 383 q 411 382 440 382 q 351 381 381 381 q 293 381 322 381 q 253 301 275 347 q 207 205 231 255 q 159 104 183 155 q 113 7 134 52 q 73 -75 91 -38 q 45 -134 56 -112 q 27 -163 37 -149 q 3 -185 16 -176 q -23 -200 -9 -195 q -48 -205 -36 -205 q -77 -197 -64 -205 q -90 -171 -90 -189 q -86 -150 -90 -162 q -74 -123 -82 -139 l 164 383 l 128 383 q 78 395 91 383 q 64 422 64 406 q 81 454 64 438 q 130 469 98 469 l 210 469 q 307 629 259 566 q 402 729 356 692 q 494 779 449 765 q 579 794 538 794 q 615 786 598 794 q 646 764 632 779 q 667 726 659 749 q 675 673 675 704 q 667 609 675 644 q 659 593 665 599 q 645 582 653 586 q 630 576 638 578 q 617 575 623 575 q 592 581 604 575 q 581 601 581 588 q 582 617 581 610 q 583 632 583 625 q 572 673 583 661 q 544 685 562 685 q 495 667 523 685 q 438 618 467 649 q 383 549 409 588 q 339 469 356 510 l 497 469 q 537 468 518 469 q 569 464 555 467 q 591 453 583 461 q 598 430 598 445 q 596 415 598 423 q 587 401 593 408 q 569 391 580 395 q 539 385 557 386 "},";":{"x_min":49.515625,"x_max":478.828125,"ha":482,"o":"m 392 158 l 119 -189 l 49 -189 l 223 158 l 392 158 m 478 388 q 465 350 475 368 q 441 318 455 332 q 407 297 426 305 q 368 288 389 288 q 320 307 338 288 q 302 356 302 326 q 311 398 302 378 q 335 433 320 418 q 370 457 350 448 q 411 466 389 466 q 460 449 442 466 q 478 400 478 432 q 478 394 478 397 q 478 388 478 392 "},"i":{"x_min":28.484375,"x_max":476.109375,"ha":326,"o":"m 193 484 q 199 517 193 500 q 217 547 205 533 q 245 569 228 560 q 286 578 263 578 q 341 563 326 578 q 357 524 357 548 q 352 496 357 512 q 337 467 347 480 q 310 445 326 454 q 271 436 294 436 q 212 450 229 436 q 193 484 196 463 m 160 434 q 186 461 171 453 q 217 469 201 469 q 261 452 242 469 q 280 410 280 436 q 278 398 279 404 q 274 385 277 392 q 258 356 264 368 q 247 333 252 343 q 237 312 242 322 q 225 288 232 302 q 207 251 217 271 q 188 210 197 231 q 172 168 179 189 q 166 131 166 148 q 175 107 166 113 q 201 101 184 101 q 241 109 220 101 q 282 130 261 118 q 324 160 303 143 q 362 193 344 177 q 395 226 380 210 q 421 254 411 242 q 448 267 434 267 q 468 256 460 267 q 476 228 476 245 q 468 195 476 212 q 442 162 460 177 q 372 94 408 126 q 298 37 336 62 q 223 -2 261 12 q 146 -16 185 -16 q 60 11 91 -16 q 28 99 28 39 q 37 160 28 130 q 58 218 46 189 q 84 272 70 246 q 107 322 97 298 q 119 349 110 330 q 137 386 127 367 q 160 434 147 408 "},"6":{"x_min":-10.859375,"x_max":533.765625,"ha":522,"o":"m 114 38 q 140 -25 114 0 q 208 -50 166 -50 q 280 -29 244 -50 q 343 25 315 -7 q 391 86 371 59 q 410 149 410 113 q 390 195 410 181 q 337 209 370 209 q 295 204 318 209 q 247 191 271 200 q 198 170 223 182 q 151 143 174 158 q 114 38 118 71 m -10 52 q 0 129 -10 84 q 34 227 10 174 q 93 340 57 281 q 179 459 129 399 q 292 568 229 518 q 436 668 355 617 q 458 675 445 675 q 479 670 469 675 q 498 657 490 666 q 512 639 507 649 q 517 617 517 628 q 511 595 517 606 q 491 574 505 583 q 382 497 427 531 q 303 425 337 463 q 247 353 269 386 q 212 298 225 320 q 293 325 250 316 q 376 335 335 335 q 437 327 408 335 q 487 300 465 318 q 521 251 508 281 q 533 179 533 221 q 520 89 533 133 q 485 7 507 45 q 431 -63 462 -31 q 361 -118 399 -95 q 281 -154 324 -141 q 194 -167 239 -167 q 110 -150 148 -167 q 45 -104 72 -134 q 3 -35 18 -75 q -10 52 -10 4 "},"A":{"x_min":26.453125,"x_max":1093.96875,"ha":897,"o":"m 729 193 q 722 163 726 180 q 718 132 718 147 q 722 109 718 118 q 740 99 727 99 q 784 112 758 99 q 838 148 809 126 q 899 199 868 170 q 961 258 930 227 q 1019 320 991 289 q 1068 379 1047 352 l 1093 288 q 1001 174 1049 229 q 905 77 954 119 q 806 10 855 35 q 708 -14 756 -14 q 659 -5 679 -14 q 627 19 639 3 q 609 55 615 35 q 603 99 603 76 q 604 124 603 108 q 605 158 604 141 q 608 189 607 175 q 609 208 609 204 l 368 193 l 256 191 q 200 82 227 130 q 174 42 187 62 q 147 7 160 23 q 120 -16 133 -7 q 93 -25 106 -25 q 60 -19 73 -25 q 40 -4 47 -13 q 29 16 32 4 q 26 37 26 27 q 31 72 26 55 q 44 105 35 90 l 134 256 q 159 301 140 265 q 207 390 177 337 q 275 506 236 442 q 359 635 314 570 q 454 763 404 701 q 558 872 505 824 q 666 949 611 920 q 773 978 720 978 q 872 946 824 978 q 965 844 921 915 q 969 828 969 834 q 965 810 969 819 q 952 794 960 801 q 935 784 944 788 q 915 779 925 779 q 887 785 903 779 q 857 808 871 790 q 813 844 836 832 q 768 855 790 855 q 703 837 736 855 q 636 788 670 819 q 569 717 602 757 q 505 632 536 676 q 444 540 474 587 q 389 451 415 493 q 342 372 364 408 q 305 311 321 336 l 429 311 l 638 327 q 655 364 644 341 q 677 417 665 387 q 705 480 690 446 q 735 548 720 514 q 765 616 750 582 q 793 678 780 649 q 819 714 802 704 q 856 725 836 725 q 876 722 866 725 q 895 713 887 719 q 909 696 904 706 q 915 673 914 687 q 904 629 915 660 q 875 556 893 598 q 837 464 858 514 q 795 366 815 415 q 756 272 774 317 q 729 193 739 227 "},"n":{"x_min":11.53125,"x_max":823.359375,"ha":645,"o":"m 179 411 q 213 455 193 440 q 253 469 233 469 q 282 457 269 469 q 295 422 295 445 q 293 403 295 413 q 286 381 291 393 q 328 420 301 400 q 390 456 356 440 q 459 482 423 472 q 526 493 495 493 q 587 475 562 493 q 611 417 611 458 q 603 366 611 392 q 584 313 596 339 q 557 261 572 286 q 529 213 543 236 q 502 172 514 191 q 484 141 491 153 q 475 116 475 130 q 478 107 475 111 q 489 103 482 103 q 500 104 494 103 q 515 111 506 105 q 590 145 552 124 q 663 188 628 165 q 728 233 699 210 q 777 274 758 256 q 788 281 783 279 q 798 283 794 283 q 816 274 810 283 q 823 252 823 265 q 810 205 823 231 q 768 157 796 179 q 697 106 729 129 q 631 63 665 83 q 559 26 598 43 q 470 -6 521 8 q 437 -14 452 -11 q 411 -16 423 -16 q 358 3 375 -16 q 341 59 341 23 q 342 68 341 63 q 343 78 342 72 q 354 124 344 99 q 378 175 364 149 q 407 228 392 202 q 436 277 423 254 q 458 319 449 301 q 467 349 467 337 q 461 366 467 359 q 444 373 455 373 q 361 347 400 373 q 288 284 322 322 q 226 204 255 246 q 176 129 198 162 q 151 81 162 107 q 128 34 140 56 q 100 -2 115 12 q 62 -16 85 -16 q 25 -2 38 -16 q 11 34 11 12 q 21 71 11 46 q 45 131 30 97 q 79 204 60 165 q 116 281 97 243 q 151 354 134 320 q 179 411 168 387 "},"O":{"x_min":159.375,"x_max":1120.421875,"ha":910,"o":"m 159 311 q 188 498 159 410 q 268 660 218 585 q 383 793 318 734 q 520 893 448 852 q 665 956 592 934 q 805 978 739 978 q 917 965 864 978 q 1012 923 971 951 q 1082 853 1054 895 q 1119 754 1110 811 q 1120 748 1120 750 q 1120 741 1120 745 q 1105 701 1120 715 q 1072 687 1089 687 q 1035 708 1052 687 q 1003 768 1018 729 q 930 837 978 815 q 823 859 883 859 q 713 840 771 859 q 600 786 656 821 q 493 703 544 752 q 404 596 442 655 q 342 470 365 537 q 320 329 320 402 q 335 227 320 269 q 374 160 349 186 q 429 123 398 134 q 491 111 459 111 q 624 149 560 111 q 735 258 687 187 q 812 431 784 329 q 841 661 841 533 q 840 687 841 674 q 840 713 840 699 q 852 763 840 747 q 880 779 864 779 q 923 764 906 779 q 949 726 940 750 q 962 671 959 701 q 966 607 966 640 q 946 433 966 515 q 892 282 927 352 q 809 157 857 212 q 706 64 761 102 q 589 5 650 25 q 465 -15 527 -15 q 352 1 407 -15 q 254 55 297 17 q 185 157 211 94 q 159 311 159 219 "},"3":{"x_min":-107.15625,"x_max":387.265625,"ha":322,"o":"m 205 170 q 202 201 205 186 q 189 228 199 217 q 160 246 179 239 q 109 252 141 252 q 86 251 98 252 q 61 249 74 249 q 33 261 42 249 q 24 286 24 272 q 41 317 24 303 q 91 337 59 331 q 172 361 138 344 q 228 397 206 378 q 260 435 250 417 q 271 463 271 453 q 257 495 271 482 q 223 507 243 507 q 163 502 189 507 q 114 491 137 497 q 73 479 92 484 q 35 474 54 474 q 1 486 16 474 q -13 517 -13 499 q 0 549 -13 532 q 45 576 18 563 q 102 599 71 589 q 165 615 132 609 q 230 621 198 621 q 290 614 262 621 q 340 590 319 607 q 374 548 362 574 q 387 483 387 522 q 343 383 387 430 q 216 307 299 336 q 273 285 250 299 q 308 254 295 271 q 327 217 322 236 q 332 180 332 198 q 316 83 332 126 q 275 13 299 39 q 216 -33 250 -11 q 134 -68 181 -56 q 54 -84 88 -80 q -12 -88 21 -88 q -41 -88 -35 -90 q -63 -82 -48 -86 q -94 -71 -82 -82 q -107 -46 -107 -61 q -94 -14 -107 -30 q -56 8 -82 1 q 4 16 -27 14 q 61 21 36 18 q 111 29 85 24 q 156 56 137 35 q 190 107 176 78 q 205 170 204 137 "},"]":{"x_min":-293.671875,"x_max":601.578125,"ha":342,"o":"m 601 1066 q 297 463 449 765 q -7 -139 144 162 l -259 -139 q -285 -131 -277 -139 q -293 -112 -293 -124 q -287 -90 -293 -102 q -270 -69 -281 -79 q -244 -53 -259 -59 q -209 -47 -228 -47 l -76 -47 q 437 972 180 463 l 303 972 q 272 981 282 972 q 263 1003 263 990 q 268 1025 263 1013 q 285 1045 274 1036 q 313 1060 297 1054 q 351 1066 330 1066 l 601 1066 "},"m":{"x_min":13.5625,"x_max":1044.46875,"ha":890,"o":"m 286 23 q 300 89 286 55 q 337 159 315 123 q 386 232 360 195 q 436 307 413 269 q 447 328 443 318 q 451 348 451 338 q 445 366 451 359 q 427 373 439 373 q 374 361 400 373 q 324 330 348 349 q 279 286 301 311 q 239 234 258 261 q 204 181 221 207 q 174 132 188 154 q 152 84 162 110 q 130 35 142 57 q 103 -2 118 12 q 66 -17 88 -17 q 27 -2 42 -17 q 13 35 13 13 q 22 73 13 47 q 45 133 31 99 q 76 206 59 167 q 111 282 94 244 q 144 354 128 320 q 169 411 159 387 q 201 455 181 440 q 241 469 221 469 q 271 456 258 469 q 284 420 284 444 q 276 381 284 402 q 316 418 295 398 q 361 454 337 438 q 417 482 386 471 q 485 493 447 493 q 521 488 504 493 q 551 473 538 483 q 573 446 564 463 q 583 407 581 430 q 617 438 598 423 q 656 465 635 453 q 703 485 678 478 q 758 493 728 493 q 801 488 781 493 q 837 472 822 483 q 863 443 853 461 q 872 400 872 425 q 853 322 872 359 q 809 255 834 286 q 788 229 801 245 q 761 196 774 214 q 739 160 748 179 q 729 125 729 141 q 738 106 729 110 q 763 102 748 102 q 824 119 791 102 q 889 160 857 136 q 948 210 921 184 q 992 254 975 236 q 1001 261 996 259 q 1012 263 1007 263 q 1034 252 1024 263 q 1044 223 1044 241 q 1036 193 1044 210 q 1008 162 1028 177 q 933 94 971 126 q 856 37 895 62 q 778 -2 817 12 q 700 -16 739 -16 q 619 6 650 -16 q 588 82 588 30 q 601 145 588 115 q 633 203 614 175 q 673 256 652 230 q 710 307 694 282 q 720 328 716 318 q 725 348 725 338 q 718 366 725 359 q 701 373 712 373 q 647 361 673 373 q 598 330 621 349 q 553 286 574 311 q 513 234 531 261 q 478 181 494 207 q 448 132 461 154 q 425 84 436 110 q 403 35 415 57 q 377 -2 392 12 q 339 -17 362 -17 q 322 -14 331 -17 q 304 -6 312 -11 q 291 6 297 0 q 286 23 286 14 "},"9":{"x_min":-34.59375,"x_max":536.46875,"ha":520,"o":"m 411 456 q 411 461 411 459 q 411 467 411 463 q 388 523 411 501 q 326 545 365 545 q 274 534 300 545 q 222 502 247 522 q 176 456 198 482 q 137 402 153 430 q 111 345 121 374 q 102 290 102 316 q 120 237 102 253 q 166 220 137 220 q 210 226 186 220 q 259 242 233 231 q 310 267 284 252 q 361 300 337 282 q 411 456 404 387 m 535 442 q 494 299 528 380 q 396 129 460 217 q 242 -36 333 41 q 42 -189 151 -113 q 30 -195 36 -194 q 18 -196 24 -196 q -18 -180 -2 -196 q -34 -143 -34 -164 q -27 -118 -34 -132 q -4 -94 -21 -105 q 101 -27 63 -54 q 176 35 139 -1 q 239 103 214 71 q 281 155 265 134 q 197 128 240 138 q 113 118 153 118 q 58 127 84 118 q 14 153 33 135 q -15 199 -4 171 q -26 267 -26 227 q -11 368 -26 319 q 29 461 3 417 q 92 542 56 505 q 170 605 128 579 q 259 647 212 632 q 352 662 305 662 q 429 648 395 662 q 486 609 463 634 q 523 549 510 583 q 536 472 536 514 q 536 457 536 465 q 535 442 535 450 "},"l":{"x_min":34.59375,"x_max":520.203125,"ha":358,"o":"m 185 196 q 170 159 177 180 q 163 122 163 139 q 167 106 163 112 q 183 100 171 100 q 218 108 197 100 q 264 131 240 117 q 316 163 289 145 q 369 200 343 181 q 420 239 396 219 q 463 274 444 258 q 476 281 468 279 q 489 283 483 283 q 511 274 502 283 q 520 248 520 264 q 510 217 520 234 q 477 182 501 199 q 389 106 434 142 q 302 43 345 70 q 215 0 258 15 q 131 -16 172 -16 q 85 -9 103 -16 q 55 10 66 -2 q 39 41 44 23 q 34 78 34 59 q 44 146 34 111 q 67 210 54 181 q 115 316 91 263 q 160 411 140 368 l 366 849 q 399 886 378 875 q 440 897 419 897 q 479 885 461 897 q 496 848 496 874 q 490 822 496 836 q 476 793 484 809 q 435 715 459 761 q 385 615 412 669 q 330 502 358 560 q 275 387 302 443 q 225 282 248 332 q 185 196 202 232 "},"8":{"x_min":-177.015625,"x_max":488.328125,"ha":388,"o":"m 187 105 q 170 172 187 141 q 121 230 152 202 q 50 176 83 200 q -5 130 18 151 q -42 91 -29 109 q -56 59 -56 73 q -28 12 -56 30 q 44 -4 -1 -4 q 100 3 73 -4 q 145 25 126 11 q 176 60 164 40 q 187 105 187 80 m 347 529 q 308 551 328 544 q 266 558 288 558 q 201 544 233 558 q 144 509 169 530 q 104 465 120 489 q 89 423 89 442 q 155 322 89 367 q 233 360 196 337 q 298 408 269 383 q 342 459 326 434 q 359 503 359 484 q 347 529 359 518 m 330 652 q 404 625 374 640 q 453 593 434 610 q 480 557 472 575 q 488 519 488 538 q 473 462 488 491 q 435 405 458 433 q 383 354 412 378 q 327 310 355 329 q 276 279 299 291 q 239 263 252 266 q 308 115 308 206 q 287 27 308 67 q 228 -42 265 -12 q 141 -87 191 -71 q 31 -103 90 -103 q -50 -91 -12 -103 q -116 -60 -88 -80 q -160 -11 -144 -40 q -177 49 -177 16 q -130 159 -177 109 q 44 280 -107 183 q -13 353 6 315 q -32 430 -32 391 q -22 488 -32 459 q 7 543 -11 517 q 51 591 25 569 q 109 629 78 613 q 176 654 141 644 q 250 663 212 663 q 330 652 291 663 "},"p":{"x_min":-164.125,"x_max":851.171875,"ha":664,"o":"m 788 318 q 805 327 797 324 q 821 330 813 330 q 843 319 836 330 q 851 292 851 308 q 842 256 851 274 q 814 225 832 238 q 685 126 741 171 q 577 49 628 82 q 478 0 526 17 q 375 -17 430 -17 q 296 1 324 -17 q 267 53 267 20 q 267 58 267 56 q 268 64 267 61 q 289 111 271 84 q 333 166 307 137 q 388 223 359 194 q 442 279 417 252 q 483 326 467 305 q 499 362 499 348 q 493 375 499 370 q 470 379 486 379 q 414 367 443 379 q 357 336 385 356 q 302 290 329 316 q 252 236 276 264 q 209 180 229 208 q 177 128 190 152 q 165 107 172 121 q 149 77 158 94 q 130 42 140 60 q 112 8 120 24 q 98 -20 104 -7 q 88 -37 91 -32 q 77 -60 85 -43 q 59 -100 69 -77 q 38 -147 49 -122 q 17 -195 27 -172 q 0 -234 7 -217 q -9 -257 -7 -251 q -25 -290 -16 -275 q -46 -318 -34 -306 q -73 -337 -58 -330 q -107 -344 -88 -344 q -148 -334 -132 -344 q -164 -297 -164 -324 q -160 -269 -164 -283 q -149 -241 -155 -255 q -137 -213 -143 -227 q -125 -188 -130 -200 q -50 -52 -88 -120 q 22 82 -12 15 q 86 213 56 149 q 136 337 116 278 q 151 371 141 349 q 172 415 160 394 q 200 453 185 437 q 233 469 215 469 q 272 458 260 469 q 284 427 284 448 q 283 415 284 423 q 280 396 282 406 q 275 377 278 386 q 271 364 273 368 q 325 410 296 387 q 385 451 354 433 q 449 481 417 470 q 514 493 482 493 q 559 487 537 493 q 598 471 581 482 q 626 445 615 461 q 637 408 637 429 q 620 348 637 380 q 579 285 604 317 q 524 223 554 253 q 470 168 495 193 q 427 126 444 143 q 409 103 410 109 q 415 89 409 94 q 436 84 421 84 q 470 95 447 84 q 532 133 492 106 q 635 205 573 160 q 788 318 697 250 "},"4":{"x_min":-4.0625,"x_max":554.109375,"ha":535,"o":"m 539 507 q 510 443 525 476 q 485 391 494 410 q 459 342 476 373 q 445 311 442 311 q 402 217 414 243 l 524 217 q 545 206 537 217 q 552 181 552 196 q 548 155 552 168 q 535 131 543 142 q 512 113 526 120 q 480 106 498 106 l 356 106 l 257 -101 q 227 -134 244 -124 q 192 -145 210 -145 q 154 -131 170 -145 q 138 -96 138 -118 q 139 -87 138 -92 q 143 -77 141 -82 l 227 106 l 46 106 q 27 107 35 106 q 11 111 18 108 q 0 121 4 115 q -4 137 -4 126 q 1 164 -4 148 q 18 203 6 179 q 42 249 33 229 q 64 297 50 269 q 92 356 78 326 q 126 427 106 387 q 162 503 145 468 q 188 563 179 539 q 219 603 198 592 q 262 615 240 615 q 303 604 285 615 q 322 576 321 593 q 321 570 321 573 q 319 563 320 567 q 270 450 296 507 q 224 349 244 392 q 192 286 203 307 q 160 219 182 266 q 192 220 177 220 q 218 220 206 220 q 269 220 250 220 l 288 219 l 297 239 q 311 274 305 258 q 329 317 317 289 q 358 376 341 345 q 395 452 375 407 q 437 537 414 497 q 477 597 455 578 q 516 615 499 615 q 543 602 532 615 q 554 566 554 590 q 550 538 554 553 q 539 507 547 523 "},"R":{"x_min":-50.859375,"x_max":834.890625,"ha":732,"o":"m 327 452 q 336 451 331 451 q 345 451 340 451 q 454 471 404 451 q 544 531 505 491 q 606 618 583 570 q 629 712 629 666 q 615 753 627 724 q 578 804 603 782 q 513 838 552 826 q 418 851 473 851 q 312 840 356 851 q 235 810 267 828 q 181 768 203 792 q 143 719 159 744 q 114 670 127 694 q 87 628 101 647 q 56 605 73 610 q 16 600 40 601 q -33 624 -16 607 q -50 673 -50 642 q -34 736 -50 702 q 10 804 -18 770 q 82 869 40 838 q 178 925 125 901 q 295 964 231 949 q 428 978 358 978 q 561 961 497 978 q 673 908 624 943 q 751 820 722 873 q 779 697 779 767 q 762 606 779 649 q 716 525 745 563 q 648 456 687 488 q 564 400 609 425 q 474 359 520 376 q 384 335 427 342 q 406 271 390 303 q 442 204 422 240 q 486 143 462 168 q 538 116 511 118 q 548 115 543 115 q 558 115 553 115 q 644 124 607 115 q 706 151 680 132 q 759 204 737 174 q 802 227 780 227 q 825 218 815 227 q 834 192 834 208 q 825 156 834 177 q 791 113 815 135 q 654 17 721 47 q 528 -12 588 -12 q 438 14 479 -12 q 362 90 396 42 q 302 194 328 137 q 254 321 276 250 q 227 262 242 293 q 198 191 213 231 q 167 112 183 151 q 131 43 151 73 q 89 -6 111 12 q 40 -25 67 -25 q 5 -18 18 -25 q -15 -2 -8 -12 q -26 20 -23 8 q -29 43 -29 32 q -25 75 -29 59 q -13 105 -21 91 l 186 472 q 255 600 212 518 q 322 716 297 682 q 369 769 347 749 q 408 789 391 789 q 420 787 413 789 q 432 781 427 786 q 442 768 438 777 q 446 747 446 760 q 438 711 446 734 q 419 658 431 688 q 376 559 406 628 q 327 452 345 489 "},"⁴":{"x_min":129.9375,"x_max":688.109375,"ha":535,"o":"m 673 507 q 644 443 659 476 q 619 391 628 410 q 593 342 610 373 q 579 311 576 311 q 536 217 548 243 l 658 217 q 679 206 671 217 q 686 181 686 196 q 682 155 686 168 q 669 131 677 142 q 646 113 660 120 q 614 106 632 106 l 490 106 l 391 -101 q 361 -134 378 -124 q 326 -145 344 -145 q 288 -131 304 -145 q 272 -96 272 -118 q 273 -87 272 -92 q 277 -77 275 -82 l 361 106 l 180 106 q 161 107 169 106 q 145 111 152 108 q 134 121 138 115 q 129 137 129 126 q 135 164 129 148 q 152 203 140 179 q 176 249 167 229 q 198 297 184 269 q 226 356 212 326 q 260 427 240 387 q 296 503 279 468 q 322 563 313 539 q 353 603 332 592 q 396 615 374 615 q 437 604 419 615 q 456 576 455 593 q 455 570 455 573 q 453 563 454 567 q 404 450 430 507 q 358 349 378 392 q 326 286 337 307 q 294 219 316 266 q 326 220 311 220 q 352 220 340 220 q 403 220 384 220 l 422 219 l 431 239 q 445 274 439 258 q 463 317 451 289 q 492 376 475 345 q 529 452 509 407 q 571 537 548 497 q 611 597 589 578 q 650 615 633 615 q 677 602 666 615 q 688 566 688 590 q 684 538 688 553 q 673 507 681 523 "},"o":{"x_min":24.421875,"x_max":773.171875,"ha":575,"o":"m 330 373 q 269 357 299 373 q 217 315 240 341 q 181 256 194 289 q 167 189 167 223 q 169 161 167 176 q 178 132 171 145 q 196 110 184 119 q 229 101 208 101 q 289 118 260 101 q 342 161 319 134 q 379 222 365 188 q 392 290 392 256 q 390 319 392 304 q 382 345 389 333 q 364 365 376 358 q 330 373 352 373 m 366 493 q 421 486 392 493 q 476 463 451 479 q 517 420 501 446 q 534 354 534 393 q 529 307 534 333 q 512 252 523 281 q 528 241 519 244 q 547 238 537 238 q 578 246 561 238 q 614 267 596 254 q 651 296 632 280 q 685 328 669 312 q 715 359 701 345 q 737 384 728 374 q 748 389 741 389 q 765 379 758 389 q 773 351 773 369 q 762 311 773 334 q 723 263 752 288 q 686 222 707 245 q 641 179 665 199 q 592 144 617 158 q 540 130 566 130 q 506 135 522 130 q 472 153 489 141 q 417 84 448 115 q 347 30 385 52 q 264 -4 309 8 q 170 -16 220 -16 q 126 -9 151 -16 q 78 15 101 -2 q 40 60 55 32 q 24 128 24 88 q 33 193 24 155 q 60 271 42 231 q 105 351 78 311 q 170 422 132 391 q 257 473 208 454 q 366 493 306 493 "},"5":{"x_min":-48.15625,"x_max":538.515625,"ha":421,"o":"m 423 190 q 406 92 423 137 q 362 11 390 48 q 297 -52 335 -24 q 216 -100 259 -81 q 126 -134 172 -120 q 37 -152 79 -149 q 12 -153 23 -154 q -6 -153 0 -153 q -35 -140 -23 -151 q -48 -114 -48 -129 q -34 -83 -48 -99 q 5 -59 -21 -67 q 64 -48 34 -54 q 125 -26 94 -42 q 186 10 157 -9 q 238 55 216 29 q 275 112 261 82 q 289 176 288 142 q 281 212 289 197 q 260 237 274 227 q 228 251 246 246 q 188 256 210 256 q 139 251 164 256 q 87 237 113 246 q 66 227 75 233 q 49 216 56 221 q 34 208 41 211 q 21 204 28 204 q -12 220 0 204 q -25 257 -25 236 q -18 287 -25 273 l 96 543 q 111 571 103 559 q 128 590 118 583 q 150 600 138 597 q 179 604 162 604 l 498 604 q 528 589 517 604 q 538 554 538 573 q 534 529 538 541 q 520 507 529 517 q 496 491 511 497 q 462 484 482 484 l 201 484 q 168 419 184 451 q 144 373 154 393 q 124 335 134 353 q 194 359 163 353 q 255 362 225 365 q 323 350 292 362 q 376 314 354 337 q 410 260 398 291 q 423 190 423 228 "}}}
